<svg width="10" height="10" viewBox="0 0 10 10" fill="none" xmlns="http://www.w3.org/2000/svg">
<path d="M8.92253 2.25586L6.17836 5.00003L8.92253 7.74419C9.00212 7.82107 9.0656 7.91302 9.10928 8.01469C9.15295 8.11636 9.17594 8.22571 9.1769 8.33636C9.17787 8.44701 9.15678 8.55674 9.11488 8.65916C9.07298 8.76157 9.0111 8.85461 8.93286 8.93286C8.85461 9.0111 8.76157 9.07298 8.65916 9.11488C8.55674 9.15678 8.44701 9.17787 8.33636 9.1769C8.22571 9.17594 8.11636 9.15295 8.01469 9.10928C7.91302 9.0656 7.82107 9.00212 7.74419 8.92253L5.00003 6.17836L2.25586 8.92253C2.17899 9.00212 2.08703 9.0656 1.98536 9.10928C1.88369 9.15295 1.77434 9.17594 1.66369 9.1769C1.55305 9.17787 1.44331 9.15678 1.3409 9.11488C1.23848 9.07298 1.14544 9.0111 1.0672 8.93286C0.988954 8.85461 0.927076 8.76157 0.885175 8.65916C0.843275 8.55674 0.82219 8.44701 0.823152 8.33636C0.824113 8.22571 0.847102 8.11636 0.890776 8.01469C0.93445 7.91302 0.997935 7.82107 1.07753 7.74419L3.82169 5.00003L1.07753 2.25586C0.997935 2.17899 0.93445 2.08703 0.890776 1.98536C0.847102 1.88369 0.824113 1.77434 0.823152 1.66369C0.82219 1.55305 0.843275 1.44331 0.885175 1.3409C0.927076 1.23848 0.988954 1.14544 1.0672 1.0672C1.14544 0.988954 1.23848 0.927076 1.3409 0.885175C1.44331 0.843275 1.55305 0.82219 1.66369 0.823152C1.77434 0.824113 1.88369 0.847102 1.98536 0.890776C2.08703 0.93445 2.17899 0.997935 2.25586 1.07753L5.00003 3.82169L7.74419 1.07753C7.82107 0.997935 7.91302 0.93445 8.01469 0.890776C8.11636 0.847102 8.22571 0.824113 8.33636 0.823152C8.44701 0.82219 8.55674 0.843275 8.65916 0.885175C8.76157 0.927076 8.85461 0.988954 8.93286 1.0672C9.0111 1.14544 9.07298 1.23848 9.11488 1.3409C9.15678 1.44331 9.17787 1.55305 9.1769 1.66369C9.17594 1.77434 9.15295 1.88369 9.10928 1.98536C9.0656 2.08703 9.00212 2.17899 8.92253 2.25586Z" fill="white"/>
</svg>
