<svg width="18" height="16" viewBox="0 0 18 16" fill="none" xmlns="http://www.w3.org/2000/svg">
<path d="M1.5 15.5H13.983C14.5143 15.5034 15.03 15.3209 15.4409 14.9841C15.8518 14.6473 16.132 14.1774 16.233 13.6558L17.2118 8.40575C17.2716 8.08447 17.2598 7.75396 17.1772 7.43777C17.0946 7.12157 16.9433 6.8275 16.734 6.5765C16.5176 6.31688 16.2465 6.10819 15.9402 5.96533C15.6338 5.82247 15.2998 5.74895 14.9618 5.75H11.3835V2.75C11.3835 1.20425 9.79875 0.5 8.3265 0.5C8.12759 0.5 7.93682 0.579018 7.79617 0.71967C7.65552 0.860322 7.5765 1.05109 7.5765 1.25C7.5765 2.68025 7.3215 4.1825 7.0335 4.463L4.94475 6.5H1.5C1.30109 6.5 1.11032 6.57902 0.96967 6.71967C0.829018 6.86032 0.75 7.05109 0.75 7.25V14.75C0.75 14.9489 0.829018 15.1397 0.96967 15.2803C1.11032 15.421 1.30109 15.5 1.5 15.5ZM6 7.56575L8.0805 5.54075C8.778 4.8605 8.9895 3.20675 9.0555 2.10275C9.462 2.1995 9.88725 2.38775 9.88725 2.75375V6.50375C9.88725 6.70266 9.96627 6.89343 10.1069 7.03408C10.2476 7.17473 10.4383 7.25375 10.6372 7.25375H14.9655C15.0831 7.25292 15.1995 7.27802 15.3063 7.32728C15.4131 7.37654 15.5078 7.44875 15.5835 7.53875C15.6529 7.62064 15.7031 7.71705 15.7303 7.82088C15.7576 7.92471 15.7612 8.03333 15.741 8.13875L14.766 13.3888C14.7274 13.566 14.6279 13.7242 14.4849 13.8358C14.3419 13.9475 14.1643 14.0056 13.983 14H6V7.56575ZM2.25 8H4.5V14H2.25V8Z" fill="black"/>
</svg>
