<svg width="23" height="23" viewBox="0 0 23 23" fill="none" xmlns="http://www.w3.org/2000/svg">
<path d="M4.00016 4.00012V5.00012H5.00016C5.26538 5.00012 5.51974 5.10547 5.70727 5.29301C5.89481 5.48055 6.00016 5.7349 6.00016 6.00012C6.00016 6.26533 5.89481 6.51969 5.70727 6.70722C5.51974 6.89476 5.26538 7.00012 5.00016 7.00012H4.00016V8.00012C4.00016 8.26533 3.89481 8.51969 3.70727 8.70722C3.51973 8.89476 3.26538 9.00012 3.00016 9.00012C2.73495 9.00012 2.48059 8.89476 2.29306 8.70722C2.10552 8.51969 2.00016 8.26533 2.00016 8.00012V7.00012H1.00016C0.734948 7.00012 0.480594 6.89476 0.293058 6.70722C0.105522 6.51969 0.00016486 6.26533 0.00016486 6.00012C0.00016486 5.7349 0.105522 5.48055 0.293058 5.29301C0.480594 5.10547 0.734948 5.00012 1.00016 5.00012H2.00016V4.00012C2.00016 3.7349 2.10552 3.48055 2.29306 3.29301C2.48059 3.10547 2.73495 3.00012 3.00016 3.00012C3.26538 3.00012 3.51973 3.10547 3.70727 3.29301C3.89481 3.48055 4.00016 3.7349 4.00016 4.00012ZM1.62516 9.21912C1.4183 9.05309 1.15395 8.97604 0.89027 9.00492C0.626594 9.03381 0.38519 9.16625 0.219165 9.37312C0.0531393 9.57999 -0.0239079 9.84434 0.00497269 10.108C0.0338533 10.3717 0.166296 10.6131 0.373165 10.7791C3.54506 13.7672 5.54374 17.7912 6.00816 22.1241C6.03838 22.3659 6.15586 22.5884 6.33853 22.7497C6.52119 22.911 6.75647 23 7.00016 23.0001C7.04195 22.9999 7.08369 22.9972 7.12516 22.9921C7.38823 22.9592 7.62744 22.8231 7.79021 22.6138C7.95297 22.4045 8.02598 22.1392 7.99317 21.8761C7.49392 17.0191 5.2277 12.5148 1.62516 9.21912ZM6.30017 7.29012C6.11231 7.47589 6.00561 7.72845 6.00336 7.99264C6.00111 8.25683 6.1035 8.51117 6.28817 8.70012C6.32416 8.73712 9.93717 12.5751 9.00517 21.9001C8.99133 22.0312 9.00354 22.1637 9.04109 22.29C9.07864 22.4163 9.14079 22.534 9.22396 22.6362C9.30713 22.7384 9.40969 22.8232 9.52574 22.8857C9.64179 22.9481 9.76903 22.987 9.90016 23.0001C9.93516 23.0001 9.96817 23.0001 10.0002 23.0001C10.2489 23.0014 10.4892 22.9098 10.6741 22.7434C10.859 22.577 10.9753 22.3476 11.0002 22.1001C12.0302 11.7471 7.88416 7.47012 7.70716 7.29312C7.52032 7.10738 7.26774 7.00287 7.00428 7.00231C6.74083 7.00175 6.4878 7.10518 6.30017 7.29012ZM17.2932 5.70712C17.4807 5.89459 17.735 5.9999 18.0002 5.9999C18.2653 5.9999 18.5196 5.89459 18.7072 5.70712L19.4142 5.00012L20.1212 5.70712C20.3098 5.88928 20.5624 5.99007 20.8246 5.98779C21.0868 5.98551 21.3376 5.88034 21.523 5.69494C21.7084 5.50953 21.8136 5.25872 21.8158 4.99652C21.8181 4.73432 21.7173 4.48172 21.5352 4.29312L20.8282 3.58612L21.5352 2.87912C21.7173 2.69051 21.8181 2.43791 21.8158 2.17572C21.8136 1.91352 21.7084 1.66271 21.523 1.4773C21.3376 1.29189 21.0868 1.18672 20.8246 1.18444C20.5624 1.18216 20.3098 1.28296 20.1212 1.46512L19.4142 2.17212L18.7072 1.46512C18.5186 1.28296 18.266 1.18216 18.0038 1.18444C17.7416 1.18672 17.4908 1.29189 17.3053 1.4773C17.1199 1.66271 17.0148 1.91352 17.0125 2.17572C17.0102 2.43791 17.111 2.69051 17.2932 2.87912L18.0002 3.58612L17.2932 4.29312C17.1057 4.48065 17.0004 4.73495 17.0004 5.00012C17.0004 5.26528 17.1057 5.51959 17.2932 5.70712ZM14.0002 16.0001C14.0002 16.2653 14.1055 16.5197 14.2931 16.7072C14.4806 16.8948 14.7349 17.0001 15.0002 17.0001C15.2654 17.0001 15.5197 16.8948 15.7073 16.7072C15.8948 16.5197 16.0002 16.2653 16.0002 16.0001C16.055 14.4206 16.5946 12.8962 17.5456 11.6339C18.4966 10.3716 19.813 9.4325 21.3162 8.94412C21.4409 8.90262 21.5563 8.83696 21.6557 8.75087C21.755 8.66479 21.8365 8.55998 21.8954 8.44242C21.9542 8.32486 21.9894 8.19686 21.9988 8.06572C22.0082 7.93458 21.9917 7.80287 21.9502 7.67812C21.9087 7.55336 21.843 7.438 21.7569 7.33862C21.6708 7.23924 21.566 7.15779 21.4485 7.09892C21.3309 7.04005 21.2029 7.00491 21.0718 6.9955C20.9406 6.9861 20.8089 7.00262 20.6842 7.04412C18.7825 7.66542 17.1194 8.85953 15.9228 10.4628C14.7263 12.0662 14.0547 14.0003 14.0002 16.0001ZM14.4002 2.20012C12.6972 3.63733 11.5286 5.60674 11.0832 7.79012C11.0527 7.91956 11.0483 8.05379 11.0703 8.18495C11.0923 8.31611 11.1402 8.44157 11.2113 8.55397C11.2824 8.66637 11.3752 8.76347 11.4842 8.83958C11.5933 8.91569 11.7164 8.96928 11.8465 8.99721C11.9765 9.02514 12.1108 9.02686 12.2415 9.00226C12.3722 8.97766 12.4966 8.92724 12.6076 8.85395C12.7186 8.78065 12.8138 8.68596 12.8878 8.57541C12.9617 8.46486 13.0128 8.34067 13.0382 8.21012C13.3906 6.5009 14.2899 4.95288 15.6002 3.80012C15.8123 3.64099 15.9526 3.40409 15.9901 3.14154C16.0276 2.87899 15.9593 2.61229 15.8002 2.40012C15.641 2.18794 15.4041 2.04768 15.1416 2.01017C14.879 1.97266 14.6123 2.04099 14.4002 2.20012ZM17.1482 16.5171C16.7928 16.8269 16.5069 17.2082 16.3091 17.6361C16.1113 18.0639 16.006 18.5288 16.0002 19.0001C16.0017 19.2622 16.1061 19.5132 16.2909 19.6992C16.4757 19.8851 16.7261 19.991 16.9882 19.9941H17.0002C17.2625 19.9942 17.5143 19.8911 17.7013 19.7073C17.8884 19.5234 17.9957 19.2734 18.0002 19.0111C18.0116 18.6603 18.1543 18.3266 18.4002 18.0761C18.611 17.9682 18.8413 17.9037 19.0775 17.8865C19.3137 17.8693 19.551 17.8998 19.7752 17.9761C19.9032 18.0055 20.0358 18.0094 20.1653 17.9876C20.2949 17.9658 20.4189 17.9187 20.5302 17.8489C20.6415 17.7792 20.7381 17.6882 20.8142 17.5812C20.8904 17.4741 20.9447 17.3532 20.9742 17.2251C21.0036 17.0971 21.0075 16.9645 20.9857 16.835C20.9638 16.7054 20.9167 16.5814 20.847 16.4701C20.7772 16.3587 20.6863 16.2622 20.5792 16.1861C20.4722 16.1099 20.3512 16.0555 20.2232 16.0261C19.7077 15.8638 19.1614 15.8236 18.6277 15.9088C18.094 15.9941 17.5875 16.2023 17.1482 16.5171ZM7.00016 1.00012C6.73495 1.00012 6.48059 1.10547 6.29306 1.29301C6.10552 1.48055 6.00016 1.7349 6.00016 2.00012C6.00016 2.26533 6.10552 2.51969 6.29306 2.70722C6.48059 2.89476 6.73495 3.00012 7.00016 3.00012C7.18055 2.97955 7.36324 2.99675 7.53661 3.05064C7.70998 3.10453 7.87023 3.19392 8.00716 3.31312C8.19519 3.74945 8.21056 4.24089 8.05017 4.68812C7.96689 4.94007 7.98711 5.21479 8.10638 5.45184C8.22566 5.68888 8.43421 5.86884 8.68616 5.95212C8.93812 6.0354 9.21284 6.01517 9.44989 5.8959C9.68693 5.77663 9.86689 5.56807 9.95016 5.31612C10.1297 4.79641 10.1944 4.24393 10.1397 3.69681C10.0849 3.14968 9.91213 2.62095 9.63317 2.14712C9.3237 1.75273 8.92106 1.44143 8.46146 1.24122C8.00187 1.04101 7.49972 0.958158 7.00016 1.00012Z" fill="#07CD86"/>
</svg>
