<svg width="20" height="18" viewBox="0 0 20 18" fill="none" xmlns="http://www.w3.org/2000/svg">
<path d="M1 18C0.734784 18 0.48043 17.8946 0.292893 17.7071C0.105357 17.5196 0 17.2652 0 17V9C0 8.73478 0.105357 8.48043 0.292893 8.29289C0.48043 8.10536 0.734784 8 1 8H4V18H1ZM17.949 7H12.178V2C12.178 0 9.102 0 9.102 0C9.102 0 9.102 4 8.076 5C7.52 5.543 6.669 7.348 6 8V18H16.644C17.1189 18.0045 17.5805 17.8429 17.9489 17.543C18.3172 17.2432 18.5691 16.824 18.661 16.358L19.961 9.358C20.0114 9.06643 19.997 8.76734 19.9187 8.48198C19.8405 8.19662 19.7003 7.932 19.5083 7.70691C19.3162 7.48182 19.0769 7.30179 18.8074 7.17962C18.538 7.05744 18.2449 6.99612 17.949 7Z" fill="black"/>
</svg>
