<svg width="10" height="10" viewBox="0 0 10 10" fill="none" xmlns="http://www.w3.org/2000/svg">
<path d="M5.83333 9.16667V5.83333H9.16667C9.38768 5.83333 9.59964 5.74554 9.75592 5.58926C9.9122 5.43297 10 5.22101 10 5C10 4.77899 9.9122 4.56702 9.75592 4.41074C9.59964 4.25446 9.38768 4.16667 9.16667 4.16667H5.83333V0.833333C5.83333 0.61232 5.74554 0.400358 5.58926 0.244078C5.43298 0.0877975 5.22101 0 5 0C4.77899 0 4.56703 0.0877975 4.41074 0.244078C4.25446 0.400358 4.16667 0.61232 4.16667 0.833333V4.16667H0.833334C0.61232 4.16667 0.400357 4.25446 0.244078 4.41074C0.0877972 4.56702 0 4.77899 0 5C0 5.22101 0.0877972 5.43297 0.244078 5.58926C0.400357 5.74554 0.61232 5.83333 0.833334 5.83333H4.16667V9.16667C4.16667 9.38768 4.25446 9.59964 4.41074 9.75592C4.56703 9.9122 4.77899 10 5 10C5.22101 10 5.43298 9.9122 5.58926 9.75592C5.74554 9.59964 5.83333 9.38768 5.83333 9.16667Z" fill="#BA8D5B"/>
</svg>
