<svg width="24" height="24" viewBox="0 0 24 24" fill="none" xmlns="http://www.w3.org/2000/svg">
<path d="M12 2C10.0222 2 8.08879 2.58649 6.4443 3.6853C4.79981 4.78412 3.51809 6.3459 2.76121 8.17317C2.00433 10.0004 1.8063 12.0111 2.19215 13.9509C2.578 15.8907 3.53041 17.6725 4.92894 19.0711C6.32746 20.4696 8.10929 21.422 10.0491 21.8079C11.9889 22.1937 13.9996 21.9957 15.8268 21.2388C17.6541 20.4819 19.2159 19.2002 20.3147 17.5557C21.4135 15.9112 22 13.9778 22 12C22 10.6868 21.7413 9.38642 21.2388 8.17317C20.7363 6.95991 19.9997 5.85752 19.0711 4.92893C18.1425 4.00035 17.0401 3.26375 15.8268 2.7612C14.6136 2.25866 13.3132 2 12 2ZM11 7C11 6.73478 11.1054 6.48043 11.2929 6.29289C11.4804 6.10536 11.7348 6 12 6C12.2652 6 12.5196 6.10536 12.7071 6.29289C12.8946 6.48043 13 6.73478 13 7V13C13 13.2652 12.8946 13.5196 12.7071 13.7071C12.5196 13.8946 12.2652 14 12 14C11.7348 14 11.4804 13.8946 11.2929 13.7071C11.1054 13.5196 11 13.2652 11 13V7ZM12 19C11.7033 19 11.4133 18.912 11.1666 18.7472C10.92 18.5824 10.7277 18.3481 10.6142 18.074C10.5007 17.7999 10.4709 17.4983 10.5288 17.2074C10.5867 16.9164 10.7296 16.6491 10.9393 16.4393C11.1491 16.2296 11.4164 16.0867 11.7074 16.0288C11.9983 15.9709 12.2999 16.0007 12.574 16.1142C12.8481 16.2277 13.0824 16.42 13.2472 16.6666C13.412 16.9133 13.5 17.2033 13.5 17.5C13.5 17.8978 13.342 18.2794 13.0607 18.5607C12.7794 18.842 12.3978 19 12 19Z" fill="white"/>
</svg>
