<svg width="20" height="20" viewBox="0 0 20 20" fill="none" xmlns="http://www.w3.org/2000/svg">
<path d="M3.3565 17.4017C3.48956 17.4729 3.63946 17.5066 3.79019 17.4993C3.94092 17.4919 4.08682 17.4438 4.21234 17.36L14.2123 10.6933C14.3265 10.6172 14.42 10.5141 14.4848 10.3932C14.5495 10.2722 14.5834 10.1372 14.5834 10C14.5834 9.86283 14.5495 9.72777 14.4848 9.60682C14.42 9.48587 14.3265 9.38277 14.2123 9.30667L4.21234 2.64C4.08684 2.55627 3.94096 2.50818 3.79027 2.50086C3.63958 2.49354 3.48972 2.52727 3.3567 2.59844C3.22367 2.66962 3.11247 2.77557 3.03494 2.905C2.95742 3.03442 2.91648 3.18247 2.9165 3.33334V16.6667C2.91644 16.8175 2.95734 16.9656 3.03483 17.095C3.11232 17.2245 3.2235 17.3305 3.3565 17.4017ZM4.58317 4.89084L12.2498 10L4.58317 15.1092V4.89084ZM15.4165 15V5C15.4165 4.77899 15.5043 4.56703 15.6606 4.41075C15.8169 4.25447 16.0288 4.16667 16.2498 4.16667C16.4709 4.16667 16.6828 4.25447 16.8391 4.41075C16.9954 4.56703 17.0832 4.77899 17.0832 5V15C17.0832 15.221 16.9954 15.433 16.8391 15.5893C16.6828 15.7455 16.4709 15.8333 16.2498 15.8333C16.0288 15.8333 15.8169 15.7455 15.6606 15.5893C15.5043 15.433 15.4165 15.221 15.4165 15Z" fill="#BA8D5B"/>
</svg>
