<svg width="20" height="20" viewBox="0 0 20 20" fill="none" xmlns="http://www.w3.org/2000/svg">
<path d="M16.6435 2.59833C16.5104 2.52713 16.3605 2.4934 16.2098 2.50074C16.0591 2.50808 15.9132 2.55621 15.7877 2.64L5.78766 9.30666C5.67353 9.38277 5.57995 9.48587 5.51523 9.60681C5.45051 9.72776 5.41664 9.86282 5.41664 10C5.41664 10.1372 5.45051 10.2722 5.51523 10.3932C5.57995 10.5141 5.67353 10.6172 5.78766 10.6933L15.7877 17.36C15.9132 17.4437 16.059 17.4918 16.2097 17.4991C16.3604 17.5065 16.5103 17.4727 16.6433 17.4016C16.7763 17.3304 16.8875 17.2244 16.9651 17.095C17.0426 16.9656 17.0835 16.8175 17.0835 16.6667L17.0835 3.33333C17.0836 3.18246 17.0427 3.03441 16.9652 2.90497C16.8877 2.77552 16.7765 2.66954 16.6435 2.59833ZM15.4168 15.1092L7.75016 10L15.4168 4.89083L15.4168 15.1092ZM4.5835 5L4.58349 15C4.58349 15.221 4.4957 15.433 4.33942 15.5893C4.18314 15.7455 3.97118 15.8333 3.75016 15.8333C3.52915 15.8333 3.31719 15.7455 3.16091 15.5893C3.00462 15.433 2.91683 15.221 2.91683 15L2.91683 5C2.91683 4.77898 3.00463 4.56702 3.16091 4.41074C3.31719 4.25446 3.52915 4.16666 3.75016 4.16666C3.97118 4.16666 4.18314 4.25446 4.33942 4.41074C4.4957 4.56702 4.5835 4.77898 4.5835 5Z" fill="black" fill-opacity="0.25"/>
</svg>
