<svg width="20" height="20" viewBox="0 0 20 20" fill="none" xmlns="http://www.w3.org/2000/svg">
<path d="M20 4.70588V1.76471C20 0.791647 19.2114 0 18.2422 0H1.75781C0.788555 0 0 0.791647 0 1.76471V4.70588H20ZM13.5156 2.35294H17.0312C17.3548 2.35294 17.6172 2.61631 17.6172 2.94118C17.6172 3.26604 17.3548 3.52941 17.0312 3.52941H13.5156C13.192 3.52941 12.9297 3.26604 12.9297 2.94118C12.9297 2.61631 13.192 2.35294 13.5156 2.35294ZM7.65625 2.35294C7.97984 2.35294 8.24219 2.61631 8.24219 2.94118C8.24219 3.26604 7.97984 3.52941 7.65625 3.52941C7.33266 3.52941 7.07031 3.26604 7.07031 2.94118C7.07031 2.61631 7.33266 2.35294 7.65625 2.35294ZM5.3125 2.35294C5.63609 2.35294 5.89844 2.61631 5.89844 2.94118C5.89844 3.26604 5.63609 3.52941 5.3125 3.52941C4.98891 3.52941 4.72656 3.26604 4.72656 2.94118C4.72656 2.61631 4.98891 2.35294 5.3125 2.35294ZM2.96875 2.35294C3.29234 2.35294 3.55469 2.61631 3.55469 2.94118C3.55469 3.26604 3.29234 3.52941 2.96875 3.52941C2.64516 3.52941 2.38281 3.26604 2.38281 2.94118C2.38281 2.61631 2.64516 2.35294 2.96875 2.35294Z" fill="#BA8D5B"/>
<path d="M0 5.88232V18.2353C0 19.2083 0.788555 20 1.75781 20H18.2422C19.2114 20 20 19.2083 20 18.2353V5.88232H0ZM6.85039 14.2465C7.10312 14.4495 7.14406 14.8196 6.94191 15.0733C6.7398 15.327 6.37102 15.3681 6.11836 15.1651L3.18867 12.8122C2.89574 12.577 2.89555 12.1289 3.18867 11.8935L6.11836 9.5406C6.37094 9.33766 6.73973 9.37876 6.94191 9.63244C7.14406 9.88613 7.10312 10.2563 6.85039 10.4592L4.49266 12.3529L6.85039 14.2465ZM12.2964 8.46699L8.78074 16.7023C8.65328 17.0008 8.30891 17.1393 8.01137 17.0112C7.71395 16.8833 7.57613 16.5374 7.70363 16.2388L11.2193 8.00354C11.3468 7.70495 11.6912 7.56664 11.9886 7.6946C12.2861 7.82256 12.4239 8.16836 12.2964 8.46699ZM16.8113 12.8122L13.8816 15.1652C13.6294 15.3679 13.2605 15.3274 13.0581 15.0733C12.8559 14.8197 12.8969 14.4495 13.1496 14.2466L15.5073 12.3529L13.1496 10.4593C12.8969 10.2564 12.8559 9.88621 13.0581 9.63252C13.2602 9.37883 13.6289 9.3377 13.8816 9.54068L16.8113 11.8936C17.1043 12.1288 17.1045 12.5769 16.8113 12.8122Z" fill="#BA8D5B"/>
</svg>
