<svg width="18" height="18" viewBox="0 0 18 18" stroke='#BA8D5B' xmlns="http://www.w3.org/2000/svg">
<path d="M2.71787 11.2499C3.75642 12.29 5.13944 12.9143 6.60639 13.0053C8.07334 13.0964 9.52294 12.6478 10.6821 11.7442L14.6706 15.7327C14.8121 15.8693 15.0015 15.9449 15.1982 15.9432C15.3948 15.9415 15.5829 15.8626 15.722 15.7236C15.861 15.5845 15.9399 15.3964 15.9416 15.1998C15.9433 15.0031 15.8677 14.8137 15.7311 14.6722L11.7426 10.6837C12.6863 9.47257 13.1325 7.94706 12.9902 6.41828C12.8478 4.88949 12.1276 3.4726 10.9765 2.45655C9.82535 1.4405 8.32999 0.901835 6.79536 0.950409C5.26073 0.998983 3.80243 1.63114 2.71787 2.71795C2.15746 3.27807 1.71291 3.94311 1.40961 4.67509C1.10631 5.40706 0.950195 6.19162 0.950195 6.98395C0.950195 7.77628 1.10631 8.56084 1.40961 9.29281C1.71291 10.0248 2.15746 10.6898 2.71787 11.2499ZM3.77837 3.77995C4.5198 3.03854 5.49536 2.57713 6.53884 2.47435C7.58232 2.37156 8.62915 2.63376 9.50099 3.21627C10.3728 3.79877 11.0157 4.66555 11.3201 5.66891C11.6246 6.67228 11.5717 7.75015 11.1705 8.71889C10.7693 9.68764 10.0446 10.4873 9.11996 10.9817C8.19529 11.476 7.12781 11.6345 6.09941 11.43C5.071 11.2256 4.1453 10.6709 3.48001 9.86045C2.81473 9.05002 2.45102 8.03398 2.45087 6.98545C2.44881 6.38963 2.56509 5.79933 2.79298 5.24881C3.02086 4.69829 3.3558 4.1985 3.77837 3.77845V3.77995Z" stroke='#BA8D5B' />
</svg>
