<svg width="16" height="17" viewBox="0 0 16 17" fill="none" xmlns="http://www.w3.org/2000/svg">
<path fill-rule="evenodd" clip-rule="evenodd" d="M12.1667 3.16663V2.33329C12.1667 1.41282 11.4205 0.666626 10.5 0.666626H5.5C4.57953 0.666626 3.83333 1.41282 3.83333 2.33329V3.16663H1.33333C0.873096 3.16663 0.5 3.53972 0.5 3.99996C0.5 4.4602 0.873096 4.83329 1.33333 4.83329H2.16667V14C2.16667 15.3807 3.28596 16.5 4.66667 16.5H11.3333C12.714 16.5 13.8333 15.3807 13.8333 14V4.83329H14.6667C15.1269 4.83329 15.5 4.4602 15.5 3.99996C15.5 3.53972 15.1269 3.16663 14.6667 3.16663H12.1667ZM10.5 2.33329H5.5V3.16663H10.5V2.33329ZM12.1667 4.83329H3.83333V14C3.83333 14.4602 4.20643 14.8333 4.66667 14.8333H11.3333C11.7936 14.8333 12.1667 14.4602 12.1667 14V4.83329Z" fill="#808080"/>
<path d="M5.5 6.49996H7.16667V13.1666H5.5V6.49996Z" fill="#808080"/>
<path d="M8.83333 6.49996H10.5V13.1666H8.83333V6.49996Z" fill="#808080"/>
</svg>
