<svg aria-hidden="true" style="position: absolute; width: 0; height: 0; overflow: hidden;" version="1.1" xmlns="http://www.w3.org/2000/svg" xmlns:xlink="http://www.w3.org/1999/xlink">
	<defs>
		<symbol id="badge-icon" viewBox="0 0 30 32">
			<title>
				badge
			</title>
			<svg width="30" height="32" viewBox="0 0 30 32" xmlns="http://www.w3.org/2000/svg">
				<path d="M29.7956 26.9916L26.1259 19.1221C24.0996 22.0725 20.9357 24.1734 17.2734 24.8105L20.3454 31.3981C20.7382 32.241 21.9537 32.1848 22.27 31.3143L23.8446 26.989L24.1691 26.8377L28.4944 28.4123C29.3623 28.7308 30.1879 27.8313 29.7956 26.9916Z" />
				<path d="M14.9483 0C8.62414 0 3.47852 5.14531 3.47852 11.4697C3.47852 17.7942 8.6242 22.9395 14.9483 22.9395C21.2724 22.9395 26.418 17.7942 26.418 11.4697C26.418 5.14531 21.2724 0 14.9483 0ZM20.5291 10.627L18.4953 12.6096L18.9759 15.4099C19.1229 16.2648 18.2221 16.9071 17.4628 16.5089L14.9483 15.1872L12.4339 16.5089C11.6702 16.9099 10.7746 16.26 10.9207 15.4098L11.4013 12.6096L9.36751 10.6269C8.74939 10.0243 9.09245 8.97237 9.94532 8.84843L12.7564 8.44012L14.0136 5.89306C14.3941 5.11956 15.5023 5.11887 15.8832 5.89306L17.1404 8.44012L19.9515 8.84843C20.8043 8.97231 21.1473 10.0243 20.5291 10.627Z" />
				<path d="M3.77031 19.1221L0.100566 26.9916C-0.293496 27.8352 0.539504 28.7298 1.40188 28.4121L5.72713 26.8375L6.05162 26.9888L7.62619 31.3141C7.94187 32.1828 9.15719 32.2427 9.55075 31.398L12.6227 24.8104C8.96044 24.1734 5.79669 22.0726 3.77031 19.1221Z" />
			</svg>
		</symbol>
		<!-- /////////////////////////////////////////// -->
		<symbol id="exit-icon" viewBox="0 0 24 26">
			<title>
				exit
			</title>
			<svg width="24" height="26" viewBox="0 0 24 26" xmlns="http://www.w3.org/2000/svg">
				<path d="M21.333 23.4998L21.333 2.49984L13.1663 2.49984C12.8569 2.49984 12.5602 2.37692 12.3414 2.15813C12.1226 1.93934 11.9997 1.64259 11.9997 1.33317C11.9997 1.02375 12.1226 0.727005 12.3414 0.508213C12.5602 0.28942 12.8569 0.166504 13.1663 0.166504L22.4997 0.166504C22.8091 0.166504 23.1058 0.28942 23.3246 0.508213C23.5434 0.727005 23.6663 1.02375 23.6663 1.33317L23.6663 24.6665C23.6663 24.9759 23.5434 25.2727 23.3246 25.4915C23.1058 25.7103 22.8091 25.8332 22.4997 25.8332L13.1663 25.8332C12.8569 25.8332 12.5602 25.7103 12.3414 25.4915C12.1226 25.2727 11.9997 24.9759 11.9997 24.6665C11.9997 24.3571 12.1226 24.0603 12.3414 23.8415C12.5602 23.6228 12.8569 23.4998 13.1663 23.4998L21.333 23.4998ZM0.333008 12.9998C0.333008 13.3093 0.455924 13.606 0.674717 13.8248C0.893509 14.0436 1.19026 14.1665 1.49967 14.1665L15.0167 14.1665L12.3415 16.8417C12.2301 16.9493 12.1412 17.078 12.0801 17.2204C12.0189 17.3627 11.9867 17.5158 11.9854 17.6707C11.984 17.8256 12.0136 17.9792 12.0722 18.1226C12.1309 18.266 12.2175 18.3963 12.327 18.5058C12.4366 18.6153 12.5668 18.702 12.7102 18.7606C12.8536 18.8193 13.0072 18.8488 13.1621 18.8475C13.3171 18.8461 13.4701 18.8139 13.6125 18.7528C13.7548 18.6916 13.8836 18.6028 13.9912 18.4913L18.6578 13.8247C18.8766 13.6059 18.9994 13.3092 18.9994 12.9998C18.9994 12.6905 18.8766 12.3938 18.6578 12.175L13.9912 7.50834C13.8836 7.39691 13.7548 7.30803 13.6125 7.24689C13.4701 7.18574 13.3171 7.15356 13.1621 7.15221C13.0072 7.15087 12.8536 7.18038 12.7102 7.23904C12.5668 7.29771 12.4366 7.38433 12.327 7.49388C12.2175 7.60342 12.1309 7.73368 12.0722 7.87706C12.0136 8.02044 11.984 8.17406 11.9854 8.32897C11.9867 8.48388 12.0189 8.63697 12.0801 8.77931C12.1412 8.92165 12.2301 9.05038 12.3415 9.158L15.0167 11.8332L1.49967 11.8332C1.19026 11.8332 0.893509 11.9561 0.674717 12.1749C0.455924 12.3937 0.333008 12.6904 0.333008 12.9998Z" />
			</svg>
		</symbol>
		<!-- /////////////////////////////////////////// -->
		<symbol id="home-icon" viewBox="0 0 22 24">
			<title>
				home
			</title>
			<svg width="22" height="24" viewBox="0 0 22 24" xmlns="http://www.w3.org/2000/svg">
				<path d="M11.6533 0.532611C11.4604 0.402206 11.2329 0.33252 11 0.33252C10.7671 0.33252 10.5396 0.402206 10.3467 0.532611L1.01333 6.83261C0.855169 6.93952 0.725656 7.08361 0.636156 7.25223C0.546656 7.42086 0.499903 7.60887 0.5 7.79978L0.5 22.4998C0.5 22.8092 0.622916 23.1059 0.841709 23.3247C1.0605 23.5435 1.35725 23.6664 1.66667 23.6664L20.3333 23.6664C20.6428 23.6664 20.9395 23.5435 21.1583 23.3247C21.3771 23.1059 21.5 22.8092 21.5 22.4998L21.5 7.79978C21.5001 7.60887 21.4533 7.42086 21.3638 7.25223C21.2743 7.08361 21.1448 6.93952 20.9867 6.83261L11.6533 0.532611ZM13.3333 21.3331L8.66667 21.3331L8.66667 14.3331H13.3333L13.3333 21.3331ZM19.1667 21.3331H15.6667L15.6667 13.1664C15.6667 12.857 15.5437 12.5603 15.325 12.3415C15.1062 12.1227 14.8094 11.9998 14.5 11.9998H7.5C7.19058 11.9998 6.89383 12.1227 6.67504 12.3415C6.45625 12.5603 6.33333 12.857 6.33333 13.1664L6.33333 21.3331H2.83333L2.83333 8.42045L11 2.90794L19.1667 8.42045L19.1667 21.3331Z" />
			</svg>
		</symbol>
		<!-- /////////////////////////////////////////// -->
		<symbol id="megaphone-icon" viewBox="0 0 29 32">
			<title>
				megaphone
			</title>
			<svg width="29" height="32" viewBox="0 0 29 32" xmlns="http://www.w3.org/2000/svg">
				<path d="M27.3086 13.2862L14.8281 0.803899C14.092 0.069648 12.9013 0.0783355 12.1749 0.802962C11.4443 1.5354 11.4443 2.72465 12.1749 3.45615L24.6572 15.9376C25.3885 16.6689 26.5773 16.6689 27.3086 15.9376C28.0418 15.2044 28.0418 14.0194 27.3086 13.2862Z" />
				<path d="M11.2498 5.18164L11.1558 5.65252C10.4941 8.9624 8.886 12.1068 6.71094 14.6554L13.5014 21.4459C16.0496 19.2712 19.1508 17.6199 22.4608 16.9574L22.9325 16.8635L11.2498 5.18164Z" />
				<path d="M5.46496 16.062L0.824135 20.7019C-0.272429 21.7985 -0.276992 23.5787 0.824135 24.6798L3.47552 27.3312C4.57208 28.4278 6.35233 28.4323 7.45346 27.3312L12.0938 22.6908L5.46496 16.062ZM6.12783 23.3542C5.76165 23.7204 5.16833 23.7204 4.80214 23.3542C4.43596 22.988 4.43596 22.3947 4.80214 22.0285L6.12783 20.7028C6.49402 20.3366 7.08734 20.3366 7.45352 20.7028C7.81971 21.069 7.81971 21.6623 7.45352 22.0285L6.12783 23.3542Z" />
				<path d="M16.0088 27.8301L17.2841 26.5548C18.3853 25.4538 18.3817 23.6735 17.2842 22.5778L16.3369 21.6299C15.8134 21.9816 15.3134 22.3637 14.8272 22.7714L15.9585 23.9044C16.3238 24.2678 16.3264 24.8593 15.9585 25.2291L14.6621 26.5255L12.757 24.6797L10.1055 27.3312L14.359 31.4529C15.0849 32.1807 16.2767 32.1848 17.0095 31.452C17.741 30.7205 17.741 29.5312 17.0095 28.7997L16.0088 27.8301Z" />
				<path d="M19.7969 0C19.2787 0 18.8594 0.419313 18.8594 0.937502V2.81251C18.8594 3.33069 19.2787 3.75001 19.7969 3.75001C20.3151 3.75001 20.7344 3.33069 20.7344 2.81251V0.937502C20.7344 0.419313 20.3151 0 19.7969 0Z" />
				<path d="M27.2969 7.5H25.4219C24.9037 7.5 24.4844 7.91931 24.4844 8.4375C24.4844 8.95569 24.9037 9.375 25.4219 9.375H27.2969C27.8151 9.375 28.2344 8.95569 28.2344 8.4375C28.2344 7.91931 27.8151 7.5 27.2969 7.5Z" />
				<path d="M26.0847 2.14964C25.7185 1.78345 25.1252 1.78345 24.759 2.14964L22.884 4.02464C22.5178 4.39083 22.5178 4.98415 22.884 5.35033C23.2502 5.71652 23.8435 5.71659 24.2097 5.35033L26.0847 3.47533C26.4509 3.10914 26.4509 2.51583 26.0847 2.14964Z" />
			</svg>
		</symbol>
		<!-- /////////////////////////////////////////// -->
		<symbol id="mini_badge-icon" viewBox="0 0 26 26">
			<title>
				mini badge
			</title>
			<svg width="26" height="26" viewBox="0 0 26 26" xmlns="http://www.w3.org/2000/svg">
				<path d="M15.3329 9.11173C15.3329 9.57322 15.196 10.0243 14.9396 10.4081C14.6833 10.7918 14.3188 11.0908 13.8925 11.2675C13.4661 11.4441 12.997 11.4903 12.5443 11.4002C12.0917 11.3102 11.676 11.088 11.3496 10.7616C11.0233 10.4353 10.8011 10.0196 10.711 9.56694C10.621 9.11432 10.6672 8.64516 10.8438 8.2188C11.0204 7.79244 11.3195 7.42802 11.7032 7.17164C12.0869 6.91525 12.5381 6.7784 12.9995 6.7784C13.6184 6.7784 14.2119 7.02423 14.6495 7.46182C15.087 7.8994 15.3329 8.49289 15.3329 9.11173ZM25.5482 18.0706C25.6863 18.2303 25.7783 18.4245 25.8147 18.6325C25.851 18.8405 25.8303 19.0544 25.7546 19.2515C25.6789 19.4486 25.5512 19.6215 25.385 19.7517C25.2188 19.8819 25.0204 19.9646 24.8109 19.9909L20.5269 20.5276L19.9902 24.8116C19.9613 25.0422 19.8642 25.2589 19.7113 25.434C19.5584 25.609 19.3567 25.7344 19.1321 25.7941C18.9075 25.8538 18.6701 25.845 18.4505 25.7689C18.2309 25.6927 18.0391 25.5528 17.8995 25.3669L12.9995 18.8336L8.09955 25.3669C7.96002 25.5528 7.76816 25.6927 7.54855 25.7689C7.32895 25.845 7.09162 25.8538 6.86699 25.7941C6.64236 25.7344 6.44067 25.609 6.28778 25.434C6.13489 25.2589 6.03778 25.0422 6.00888 24.8116L5.47221 20.5276L1.18822 19.9909C0.978735 19.9646 0.780324 19.8819 0.614132 19.7517C0.447939 19.6215 0.320195 19.4486 0.244517 19.2515C0.16884 19.0544 0.148065 18.8405 0.184407 18.6325C0.220749 18.4245 0.312847 18.2303 0.450882 18.0706L4.91455 12.9116C4.26928 11.5482 3.97925 10.0438 4.07144 8.53828C4.16363 7.03274 4.63504 5.57497 5.44183 4.30053C6.24862 3.02608 7.36459 1.97635 8.68597 1.24896C10.0073 0.521568 11.4912 0.140137 12.9995 0.140137C14.5079 0.140137 15.9918 0.521568 17.3131 1.24896C18.6345 1.97635 19.7505 3.02608 20.5573 4.30053C21.3641 5.57497 21.8355 7.03274 21.9277 8.53828C22.0198 10.0438 21.7298 11.5482 21.0845 12.9116L25.5482 18.0706ZM10.8634 17.7929C10.8389 17.7929 10.8155 17.7754 10.791 17.7684C9.0318 17.3157 7.45158 16.3393 6.25972 14.9684C6.25272 14.9602 6.24338 14.9544 6.23638 14.9451L3.64288 17.9469L6.66221 18.3237C6.91994 18.3558 7.15961 18.4729 7.34325 18.6565C7.52689 18.8402 7.64401 19.0798 7.67605 19.3376L7.96538 21.6569L10.8634 17.7929ZM19.6134 9.11173C19.6136 7.80415 19.2261 6.52586 18.4999 5.4385C17.7736 4.35114 16.7413 3.50355 15.5333 3.00289C14.3254 2.50224 12.9961 2.371 11.7136 2.62579C10.4311 2.88057 9.25293 3.50994 8.32808 4.43429C7.40324 5.35865 6.77325 6.53648 6.51779 7.81887C6.26233 9.10125 6.39285 10.4306 6.89287 11.6388C7.39289 12.847 8.23994 13.8798 9.32691 14.6066C10.4139 15.3334 11.692 15.7216 12.9995 15.7221C14.7523 15.7202 16.4327 15.0232 17.6721 13.784C18.9116 12.5447 19.6089 10.8644 19.611 9.11173H19.6134ZM22.3562 17.9469L19.7662 14.9497C18.5702 16.3286 16.9835 17.3116 15.2162 17.7684C15.1917 17.7754 15.1684 17.7871 15.1439 17.7929L18.0419 21.6569L18.3312 19.3376C18.3633 19.0798 18.4804 18.8402 18.664 18.6565C18.8477 18.4729 19.0873 18.3558 19.345 18.3237L22.3562 17.9469Z" />
			</svg>
		</symbol>
		<!-- /////////////////////////////////////////// -->
		<symbol id="react-icon" viewBox="0 0 24 24">
			<title>
				react
			</title>
			<svg width="24" height="24" viewBox="0 0 24 24" xmlns="http://www.w3.org/2000/svg">
				<path d="M14.3331 12C14.3331 12.4615 14.1963 12.9126 13.9399 13.2963C13.6835 13.68 13.3191 13.9791 12.8927 14.1557C12.4663 14.3323 11.9972 14.3785 11.5446 14.2885C11.0919 14.1985 10.6762 13.9762 10.3499 13.6499C10.0235 13.3236 9.8013 12.9078 9.71127 12.4552C9.62124 12.0026 9.66745 11.5334 9.84405 11.1071C10.0207 10.6807 10.3197 10.3163 10.7034 10.0599C11.0872 9.80351 11.5383 9.66666 11.9998 9.66666C12.6186 9.66666 13.2121 9.9125 13.6497 10.3501C14.0873 10.7877 14.3331 11.3812 14.3331 12ZM21.1569 12C23.1729 15.2142 24.0584 18.3 23.5043 20.4992C23.3623 21.1355 23.0649 21.7268 22.6386 22.2201C22.2123 22.7134 21.6703 23.0933 21.0613 23.326C18.3243 24.4098 14.5046 22.7182 11.9998 21.1537C9.50077 22.7147 5.67643 24.411 2.93827 23.326C2.3292 23.0933 1.78729 22.7134 1.36097 22.2201C0.934652 21.7268 0.637221 21.1355 0.495269 20.4992C-0.0588982 18.3 0.826602 15.2142 2.8426 12C0.826602 8.78583 -0.0588982 5.7 0.495269 3.50083C0.637221 2.86448 0.934652 2.27323 1.36097 1.77993C1.78729 1.28663 2.3292 0.906661 2.93827 0.673998C5.18177 -0.213836 8.55344 0.698498 11.9998 2.851C15.4449 0.698498 18.8178 -0.213836 21.0613 0.673998C21.6703 0.906661 22.2123 1.28663 22.6386 1.77993C23.0649 2.27323 23.3623 2.86448 23.5043 3.50083C24.0584 5.7 23.1729 8.78583 21.1569 12ZM4.32194 9.90583C4.5856 9.564 4.83994 9.22216 5.12577 8.88266C6.54604 7.19818 8.14171 5.66978 9.88577 4.32333C8.2886 3.4285 5.49794 2.17316 3.7946 2.84516C3.53156 2.94266 3.29805 3.10626 3.1166 3.32021C2.93514 3.53415 2.81185 3.79123 2.7586 4.06666C2.4541 5.2835 2.89977 7.38116 4.32194 9.90583ZM9.89977 19.6872C8.15165 18.3378 6.55244 16.8059 5.12927 15.1173C4.84344 14.7778 4.5891 14.436 4.32544 14.0942C2.90677 16.6188 2.45877 18.7165 2.7621 19.9275C2.81462 20.2038 2.93758 20.4618 3.11908 20.6766C3.30058 20.8914 3.53447 21.0558 3.7981 21.1537C5.08027 21.6612 7.3471 21.1175 9.89977 19.6872ZM11.9998 18.3397C13.8844 16.9791 15.5937 15.3909 17.0888 13.6112C17.5554 13.064 17.9649 12.5273 18.3453 12C17.9649 11.4727 17.5508 10.936 17.0888 10.3888C15.5934 8.60967 13.8841 7.02189 11.9998 5.6615C10.1154 7.02189 8.40614 8.60967 6.91077 10.3888C6.4441 10.936 6.0346 11.4727 5.65427 12C6.0346 12.5273 6.44877 13.064 6.91077 13.6112C8.40613 15.3907 10.1154 16.9788 11.9998 18.3397ZM19.6776 14.1C19.4139 14.4418 19.1596 14.7837 18.8738 15.1232C17.4492 16.8099 15.8488 18.3399 14.0998 19.6872C16.6478 21.1175 18.9146 21.6612 20.2003 21.1548C20.4639 21.0569 20.6978 20.8926 20.8793 20.6778C21.0608 20.463 21.1838 20.2049 21.2363 19.9287C21.5454 18.7165 21.0998 16.6188 19.6776 14.1ZM21.2409 4.06666C21.1884 3.79038 21.0655 3.53234 20.884 3.31753C20.7025 3.10271 20.4686 2.9384 20.2049 2.8405C18.5016 2.1685 15.7109 3.42383 14.1138 4.31866C15.8578 5.66512 17.4535 7.19352 18.8738 8.878C19.1596 9.2175 19.4139 9.55933 19.6776 9.90116C21.0998 7.38116 21.5454 5.2835 21.2409 4.06666Z" />
			</svg>
		</symbol>
		<!-- /////////////////////////////////////////// -->
		<symbol id="notch-icon" viewBox="0 0 34 34">
			<title>
				notch
			</title>
			<svg width="34" height="34" viewBox="0 0 34 34" xmlns="http://www.w3.org/2000/svg">
				<path d="M32.0439 0.646192L28.3062 0.655697C27.7982 0.656989 27.3762 1.09159 27.3627 1.62738L27.3383 2.59673L19.8161 2.61585C19.4638 1.49096 18.4736 0.680701 17.2769 0.683744C16.0802 0.686787 15.0491 1.50219 14.6401 2.62902L7.11796 2.64815L7.14235 1.6788C7.15582 1.14301 6.75565 0.710499 6.24763 0.711791L2.50993 0.721296C2.00191 0.722587 1.57991 1.15719 1.56644 1.69298L1.4689 5.57036C1.45542 6.10615 1.8556 6.53866 2.36362 6.53737L6.10132 6.52787C6.60934 6.52658 7.03133 6.09197 7.04481 5.55618L7.06952 4.57391L10.8442 4.56431C7.60163 6.67403 5.40555 10.3706 5.05015 14.5055C3.93776 14.889 3.10656 15.9737 3.07414 17.2623C3.0338 18.8659 4.23786 20.1672 5.7583 20.1633C7.27875 20.1595 8.54844 18.8518 8.58878 17.2483C8.61989 16.0114 7.90732 14.9617 6.88364 14.5446C7.31319 9.9346 10.4604 6.04196 14.7301 4.92276C15.1653 5.85714 16.0649 6.50253 17.1306 6.49982C18.1963 6.49711 19.1285 5.84706 19.6108 4.91035C23.8247 6.00791 26.7764 9.88504 26.9741 14.4935C25.9293 14.9158 25.1638 15.9693 25.1327 17.2062C25.0924 18.8098 26.2964 20.1111 27.8169 20.1072C29.3373 20.1034 30.607 18.7958 30.6473 17.1922C30.6797 15.9036 29.903 14.823 28.8098 14.4451C28.6624 10.3114 26.6517 6.63851 23.5148 4.54502L27.2895 4.53542L27.2651 5.50476C27.2517 6.04056 27.6518 6.47307 28.1599 6.47177L31.8976 6.46227C32.4056 6.46098 32.8276 6.02638 32.8411 5.49059L32.9386 1.6132C32.9521 1.07741 32.5519 0.6449 32.0439 0.646192Z" />
				<path d="M23.3302 31.8745C22.8805 30.2924 21.5096 29.0818 19.8642 29.0834L14.2971 29.0888C12.6517 29.0904 11.2262 30.3037 10.7052 31.8868C10.5043 32.4971 10.9776 33.1128 11.5801 33.1123L22.4001 33.1018C23.0025 33.1012 23.5036 32.4845 23.3302 31.8745Z" />
				<path d="M24.9916 20.2453L18.1831 9.02584L17.9504 18.1026C18.9927 18.4959 19.7255 19.5457 19.6936 20.7914C19.653 22.3742 18.4006 23.6653 16.9017 23.6696C15.4027 23.674 14.2163 22.39 14.2569 20.8073C14.2889 19.5616 15.0756 18.5073 16.1382 18.1079L16.3709 9.03112L8.98612 20.292C8.73658 20.672 8.7714 21.1774 9.06843 21.4988C10.6868 23.2504 11.6921 25.5101 12.0402 27.9361C12.6766 27.6646 13.3652 27.5067 14.0852 27.5046L19.5219 27.4888C20.2419 27.4867 20.9225 27.6405 21.545 27.9083C22.0176 25.4797 23.1389 23.2141 24.8474 21.4528C25.1609 21.1296 25.2217 20.624 24.9916 20.2453Z" />
				<path d="M17.0587 19.7952C16.557 19.7967 16.1384 20.2272 16.1248 20.7557C16.1112 21.2841 16.5078 21.7123 17.0095 21.7108C17.5112 21.7093 17.9298 21.2788 17.9434 20.7503C17.957 20.2219 17.5604 19.7937 17.0587 19.7952Z" />
			</svg>
		</symbol>
		<!-- /////////////////////////////////////////// -->
		<symbol id="settings-icon" viewBox="0 0 26 26">
			<title>
				settings
			</title>
			<svg width="26" height="26" viewBox="0 0 26 26" xmlns="http://www.w3.org/2000/svg">
				<path d="M12.9998 17.6665C13.9228 17.6665 14.8251 17.3928 15.5925 16.88C16.3599 16.3672 16.9581 15.6384 17.3113 14.7857C17.6645 13.933 17.7569 12.9947 17.5768 12.0894C17.3968 11.1842 16.9523 10.3526 16.2997 9.7C15.647 9.04736 14.8155 8.6029 13.9102 8.42284C13.005 8.24277 12.0667 8.33519 11.214 8.6884C10.3612 9.04161 9.63242 9.63975 9.11964 10.4072C8.60686 11.1746 8.33316 12.0769 8.33316 12.9998C8.33316 14.2375 8.82483 15.4245 9.7 16.2997C10.5752 17.1748 11.7622 17.6665 12.9998 17.6665ZM12.9998 10.6665C13.4613 10.6665 13.9124 10.8034 14.2962 11.0597C14.6799 11.3161 14.9789 11.6805 15.1555 12.1069C15.3322 12.5333 15.3784 13.0024 15.2883 13.455C15.1983 13.9077 14.9761 14.3234 14.6497 14.6498C14.3234 14.9761 13.9077 15.1983 13.455 15.2883C13.0024 15.3784 12.5333 15.3322 12.1069 15.1556C11.6805 14.979 11.3161 14.6799 11.0597 14.2962C10.8033 13.9125 10.6665 13.4613 10.6665 12.9998C10.6665 12.381 10.9123 11.7875 11.3499 11.3499C11.7875 10.9123 12.381 10.6665 12.9998 10.6665ZM3.08316 14.023L1.9165 14.6985C1.65105 14.8516 1.41836 15.0555 1.23172 15.2986C1.04508 15.5416 0.90814 15.8191 0.828729 16.115C0.749317 16.411 0.728986 16.7197 0.768896 17.0236C0.808806 17.3274 0.908175 17.6204 1.06133 17.8858L2.7985 20.8935C2.95152 21.1594 3.15546 21.3924 3.39865 21.5794C3.64184 21.7664 3.91951 21.9035 4.21576 21.9831C4.51202 22.0626 4.82106 22.0829 5.12518 22.0429C5.42931 22.0029 5.72256 21.9033 5.98816 21.7498L7.16649 21.0685C7.34632 20.967 7.54974 20.9147 7.75622 20.917C7.9627 20.9192 8.16493 20.9759 8.3425 21.0813C8.51786 21.1829 8.66349 21.3286 8.76484 21.5041C8.86618 21.6796 8.91968 21.8785 8.92 22.0812V23.4998C8.92 24.1187 9.16583 24.7122 9.60341 25.1498C10.041 25.5873 10.6345 25.8332 11.2533 25.8332L14.7533 25.8332C15.3722 25.8332 15.9657 25.5873 16.4032 25.1498C16.8408 24.7122 17.0867 24.1187 17.0867 23.4998V22.0788C17.0898 21.8753 17.1456 21.676 17.2488 21.5005C17.3519 21.3249 17.4988 21.1791 17.6751 21.0774C17.8514 20.9756 18.0511 20.9212 18.2547 20.9197C18.4583 20.9181 18.6588 20.9694 18.8367 21.0685L20.0138 21.7475C20.5497 22.0569 21.1866 22.1408 21.7844 21.9806C22.3821 21.8204 22.8917 21.4294 23.2012 20.8935L24.9372 17.8858C25.0903 17.6204 25.1897 17.3274 25.2296 17.0236C25.2695 16.7197 25.2492 16.411 25.1698 16.115C25.0904 15.8191 24.9534 15.5416 24.7668 15.2986C24.5801 15.0555 24.3474 14.8516 24.082 14.6985L22.9153 14.023C22.7344 13.9176 22.5849 13.7658 22.4823 13.5832C22.3798 13.4007 22.3279 13.194 22.332 12.9847C22.3324 12.7803 22.3865 12.5796 22.4889 12.4027C22.5913 12.2258 22.7383 12.0789 22.9153 11.9767L24.082 11.3012C24.3474 11.1481 24.5801 10.9441 24.7668 10.7011C24.9534 10.458 25.0904 10.1806 25.1698 9.88463C25.2492 9.58866 25.2695 9.27993 25.2296 8.9761C25.1897 8.67226 25.0903 8.37927 24.9372 8.11384L23.1988 5.10617C23.0458 4.84062 22.842 4.60782 22.599 4.42107C22.356 4.23431 22.0785 4.09726 21.7826 4.01774C21.4866 3.93821 21.1778 3.91778 20.8739 3.95761C20.5701 3.99743 20.277 4.09673 20.0115 4.24984L18.8332 4.93C18.6553 5.0295 18.4546 5.08106 18.2508 5.07963C18.047 5.07819 17.847 5.02381 17.6706 4.92181C17.4941 4.81982 17.3472 4.67371 17.2442 4.49783C17.1412 4.32194 17.0857 4.1223 17.0832 3.9185V2.49984C17.0832 1.881 16.8373 1.28751 16.3997 0.849921C15.9622 0.412337 15.3687 0.166504 14.7498 0.166504L11.2498 0.166504C10.631 0.166504 10.0375 0.412337 9.59991 0.849921C9.16233 1.28751 8.91649 1.881 8.91649 2.49984V4.0095C8.91646 4.18459 8.87029 4.35658 8.78263 4.50815C8.69497 4.65971 8.56891 4.7855 8.41716 4.87284L8.23749 4.97667C8.08565 5.06299 7.91399 5.10837 7.73933 5.10837C7.56467 5.10837 7.393 5.06299 7.24116 4.97667L5.98816 4.24984C5.72275 4.09645 5.42972 3.99687 5.12581 3.95678C4.8219 3.91669 4.51307 3.93687 4.21696 4.01618C3.92086 4.09549 3.64328 4.23236 3.40009 4.41899C3.15691 4.60562 2.95288 4.83833 2.79966 5.10384L1.06366 8.115C0.754529 8.65067 0.670711 9.28716 0.830626 9.8846C0.990541 10.482 1.38111 10.9916 1.9165 11.3012L3.08316 11.9755C3.26395 12.0814 3.41328 12.2334 3.5158 12.4161C3.61832 12.5988 3.67034 12.8055 3.6665 13.015C3.66679 13.2195 3.61299 13.4205 3.51054 13.5975C3.40809 13.7746 3.26065 13.9214 3.08316 14.023ZM4.24983 9.95484L3.08316 9.2805L4.82149 6.27284L6.07449 6.99617C6.58034 7.28686 7.15357 7.43984 7.73699 7.43984C8.32042 7.43984 8.89365 7.28686 9.39949 6.99617L9.57916 6.8935C10.0858 6.60115 10.5067 6.18089 10.7999 5.67477C11.0931 5.16865 11.2483 4.59441 11.2498 4.0095V2.49984L14.7498 2.49984V3.9185C14.7523 4.53197 14.9155 5.13409 15.2232 5.66482C15.5309 6.19555 15.9723 6.63634 16.5035 6.94325C17.0347 7.25016 17.637 7.41246 18.2505 7.41396C18.864 7.41547 19.4671 7.25613 19.9998 6.95184L21.1747 6.27284L22.9165 9.2805L21.7498 9.95484C21.2186 10.2659 20.778 10.7106 20.4719 11.2447C20.1657 11.7787 20.0046 12.3836 20.0046 12.9993C20.0046 13.6149 20.1657 14.2198 20.4719 14.7538C20.778 15.2879 21.2186 15.7326 21.7498 16.0437L22.9165 16.7192L21.1805 19.7268L19.9998 19.0478C19.4671 18.7435 18.864 18.5842 18.2505 18.5857C17.637 18.5872 17.0347 18.7495 16.5035 19.0564C15.9723 19.3633 15.5309 19.8041 15.2232 20.3349C14.9155 20.8656 14.7523 21.4677 14.7498 22.0812V23.4998L11.2498 23.4998V22.0812C11.2481 21.4674 11.0853 20.8649 10.7778 20.3337C10.4703 19.8026 10.0287 19.3615 9.49732 19.0544C8.96589 18.7474 8.3632 18.5852 7.74945 18.584C7.13571 18.5829 6.5324 18.7428 5.99983 19.0478L4.825 19.7268L3.08316 16.7192L4.24983 16.0437C4.78106 15.7326 5.22164 15.2879 5.5278 14.7538C5.83396 14.2198 5.99505 13.6149 5.99505 12.9993C5.99505 12.3836 5.83396 11.7787 5.5278 11.2447C5.22164 10.7106 4.78106 10.2659 4.24983 9.95484Z" />
			</svg>
		</symbol>
		<!-- /////////////////////////////////////////// -->
		<symbol id="star-icon" viewBox="0 0 32 32">
			<title>
				star
			</title>
			<svg width="32" height="32" viewBox="0 0 32 32" xmlns="http://www.w3.org/2000/svg">
				<path d="M16 0C7.17801 0 0 7.17758 0 16C0 24.8224 7.1781 32 16 32C24.822 32 32 24.8224 32 16C32 7.17758 24.8221 0 16 0ZM23.7852 14.8244L20.9481 17.5901L21.6185 21.4964C21.8235 22.689 20.5669 23.585 19.5077 23.0295L16.0001 21.1857L12.4925 23.0294C11.4272 23.5888 10.1778 22.6823 10.3817 21.4963L11.0521 17.59L8.215 14.8243C7.35273 13.9837 7.8313 12.5162 9.02103 12.3433L12.9424 11.7738L14.6962 8.22067C15.2269 7.14165 16.7729 7.1407 17.3042 8.22067L19.058 11.7738L22.9794 12.3433C24.169 12.5161 24.6474 13.9837 23.7852 14.8244Z" />
			</svg>
		</symbol>
		<!-- /////////////////////////////////////////// -->
		<symbol id="tab-icon" viewBox="0 0 26 22">
			<title>
				tab
			</title>
			<svg width="26" height="22" viewBox="0 0 26 22" xmlns="http://www.w3.org/2000/svg">
				<path d="M3.66699 21.5L22.3337 21.5C23.2619 21.5 24.1522 21.1313 24.8085 20.4749C25.4649 19.8185 25.8337 18.9283 25.8337 18L25.8337 4C25.8337 3.07174 25.4649 2.1815 24.8085 1.52513C24.1522 0.868749 23.2619 0.5 22.3337 0.5L3.66699 0.5C2.73873 0.5 1.8485 0.868749 1.19212 1.52513C0.535741 2.1815 0.166992 3.07174 0.166992 4L0.166992 18C0.166992 18.9283 0.535741 19.8185 1.19212 20.4749C1.8485 21.1313 2.73873 21.5 3.66699 21.5ZM2.50033 4C2.50033 3.69058 2.62324 3.39383 2.84203 3.17504C3.06083 2.95625 3.35757 2.83333 3.66699 2.83333L22.3337 2.83333C22.6431 2.83333 22.9398 2.95625 23.1586 3.17504C23.3774 3.39383 23.5003 3.69058 23.5003 4L23.5003 18C23.5003 18.3094 23.3774 18.6062 23.1586 18.825C22.9398 19.0438 22.6431 19.1667 22.3337 19.1667L3.66699 19.1667C3.35757 19.1667 3.06083 19.0438 2.84203 18.825C2.62324 18.6062 2.50033 18.3094 2.50033 18L2.50033 4ZM4.83366 15.6667C4.83366 15.3572 4.95658 15.0605 5.17537 14.8417C5.39416 14.6229 5.69091 14.5 6.00033 14.5H9.50033C9.80974 14.5 10.1065 14.6229 10.3253 14.8417C10.5441 15.0605 10.667 15.3572 10.667 15.6667C10.667 15.9761 10.5441 16.2728 10.3253 16.4916C10.1065 16.7104 9.80974 16.8333 9.50033 16.8333H6.00033C5.69091 16.8333 5.39416 16.7104 5.17537 16.4916C4.95658 16.2728 4.83366 15.9761 4.83366 15.6667ZM4.83366 12.1667C4.83366 11.8572 4.95658 11.5605 5.17537 11.3417C5.39416 11.1229 5.69091 11 6.00033 11H13.0003C13.3097 11 13.6065 11.1229 13.8253 11.3417C14.0441 11.5605 14.167 11.8572 14.167 12.1667C14.167 12.4761 14.0441 12.7728 13.8253 12.9916C13.6065 13.2104 13.3097 13.3333 13.0003 13.3333H6.00033C5.69091 13.3333 5.39416 13.2104 5.17537 12.9916C4.95658 12.7728 4.83366 12.4761 4.83366 12.1667Z" />
			</svg>
		</symbol>
		<!-- /////////////////////////////////////////// -->
		<symbol id="tag-icon" viewBox="0 0 32 32">
			<title>
				tag
			</title>
			<svg width="32" height="32" viewBox="0 0 32 32" xmlns="http://www.w3.org/2000/svg">
				<path d="M32 7.52941V2.82353C32 1.26664 30.7383 0 29.1875 0H2.8125C1.26169 0 0 1.26664 0 2.82353V7.52941H32ZM21.625 3.76471H27.25C27.7677 3.76471 28.1875 4.1861 28.1875 4.70588C28.1875 5.22566 27.7677 5.64706 27.25 5.64706H21.625C21.1073 5.64706 20.6875 5.22566 20.6875 4.70588C20.6875 4.1861 21.1073 3.76471 21.625 3.76471ZM12.25 3.76471C12.7677 3.76471 13.1875 4.1861 13.1875 4.70588C13.1875 5.22566 12.7677 5.64706 12.25 5.64706C11.7323 5.64706 11.3125 5.22566 11.3125 4.70588C11.3125 4.1861 11.7323 3.76471 12.25 3.76471ZM8.5 3.76471C9.01775 3.76471 9.4375 4.1861 9.4375 4.70588C9.4375 5.22566 9.01775 5.64706 8.5 5.64706C7.98225 5.64706 7.5625 5.22566 7.5625 4.70588C7.5625 4.1861 7.98225 3.76471 8.5 3.76471ZM4.75 3.76471C5.26775 3.76471 5.6875 4.1861 5.6875 4.70588C5.6875 5.22566 5.26775 5.64706 4.75 5.64706C4.23225 5.64706 3.8125 5.22566 3.8125 4.70588C3.8125 4.1861 4.23225 3.76471 4.75 3.76471Z" />
				<path d="M0 9.41162V29.1763C0 30.7332 1.26169 31.9999 2.8125 31.9999H29.1875C30.7383 31.9999 32 30.7332 32 29.1763V9.41162H0ZM10.9606 22.7943C11.365 23.119 11.4305 23.7113 11.1071 24.1172C10.7837 24.523 10.1936 24.5889 9.78938 24.2641L5.10187 20.4994C4.63319 20.1232 4.63287 19.4062 5.10187 19.0296L9.78938 15.2649C10.1935 14.9402 10.7836 15.0059 11.1071 15.4118C11.4305 15.8177 11.365 16.41 10.9606 16.7347L7.18825 19.7646L10.9606 22.7943ZM19.6742 13.5471L14.0492 26.7236C13.8453 27.2012 13.2943 27.4227 12.8182 27.2179C12.3423 27.0131 12.1218 26.4598 12.3258 25.982L17.9508 12.8056C18.1548 12.3278 18.7059 12.1065 19.1818 12.3113C19.6577 12.516 19.8782 13.0693 19.6742 13.5471ZM26.8981 20.4995L22.2106 24.2642C21.807 24.5885 21.2169 24.5237 20.8929 24.1173C20.5695 23.7114 20.635 23.119 21.0394 22.7944L24.8118 19.7646L21.0394 16.7348C20.635 16.4101 20.5695 15.8178 20.8929 15.4119C21.2163 15.006 21.8063 14.9402 22.2106 15.265L26.8981 19.0297C27.3668 19.406 27.3671 20.1229 26.8981 20.4995Z" />
			</svg>
		</symbol>
		<!-- /////////////////////////////////////////// -->
		<symbol id="fireworks-icon" viewBox="0 0 24 24">
			<title>
				firework
			</title>
			<svg width="24" height="24" viewBox="0 0 24 24" xmlns="http://www.w3.org/2000/svg">
				<path d="M5.00016 4.00012V5.00012H6.00016C6.26538 5.00012 6.51974 5.10547 6.70727 5.29301C6.89481 5.48055 7.00016 5.7349 7.00016 6.00012C7.00016 6.26533 6.89481 6.51969 6.70727 6.70722C6.51974 6.89476 6.26538 7.00012 6.00016 7.00012H5.00016V8.00012C5.00016 8.26533 4.89481 8.51969 4.70727 8.70722C4.51973 8.89476 4.26538 9.00012 4.00016 9.00012C3.73495 9.00012 3.48059 8.89476 3.29306 8.70722C3.10552 8.51969 3.00016 8.26533 3.00016 8.00012V7.00012H2.00016C1.73495 7.00012 1.48059 6.89476 1.29306 6.70722C1.10552 6.51969 1.00016 6.26533 1.00016 6.00012C1.00016 5.7349 1.10552 5.48055 1.29306 5.29301C1.48059 5.10547 1.73495 5.00012 2.00016 5.00012H3.00016V4.00012C3.00016 3.7349 3.10552 3.48055 3.29306 3.29301C3.48059 3.10547 3.73495 3.00012 4.00016 3.00012C4.26538 3.00012 4.51973 3.10547 4.70727 3.29301C4.89481 3.48055 5.00016 3.7349 5.00016 4.00012V4.00012ZM2.62516 9.21912C2.4183 9.05309 2.15395 8.97604 1.89027 9.00492C1.62659 9.03381 1.38519 9.16625 1.21916 9.37312C1.05314 9.57999 0.976092 9.84434 1.00497 10.108C1.03385 10.3717 1.1663 10.6131 1.37316 10.7791C4.54506 13.7672 6.54374 17.7912 7.00816 22.1241C7.03838 22.3659 7.15586 22.5884 7.33853 22.7497C7.52119 22.911 7.75647 23 8.00016 23.0001C8.04195 22.9999 8.08369 22.9972 8.12516 22.9921C8.38823 22.9592 8.62744 22.8231 8.79021 22.6138C8.95297 22.4045 9.02598 22.1392 8.99317 21.8761C8.49392 17.0191 6.2277 12.5148 2.62516 9.21912V9.21912ZM7.30017 7.29012C7.11231 7.47589 7.00561 7.72845 7.00336 7.99264C7.00111 8.25683 7.1035 8.51117 7.28817 8.70012C7.32417 8.73712 10.9372 12.5751 10.0052 21.9001C9.99133 22.0312 10.0035 22.1637 10.0411 22.29C10.0786 22.4163 10.1408 22.534 10.224 22.6362C10.3071 22.7384 10.4097 22.8232 10.5257 22.8857C10.6418 22.9481 10.769 22.987 10.9002 23.0001C10.9352 23.0001 10.9682 23.0001 11.0002 23.0001C11.2489 23.0014 11.4892 22.9098 11.6741 22.7434C11.8591 22.577 11.9753 22.3476 12.0002 22.1001C13.0302 11.7471 8.88416 7.47012 8.70716 7.29312C8.52032 7.10738 8.26774 7.00287 8.00428 7.00231C7.74083 7.00175 7.4878 7.10518 7.30017 7.29012V7.29012ZM18.2932 5.70712C18.4807 5.89459 18.735 5.9999 19.0002 5.9999C19.2653 5.9999 19.5196 5.89459 19.7072 5.70712L20.4142 5.00012L21.1212 5.70712C21.3098 5.88928 21.5624 5.99007 21.8246 5.98779C22.0868 5.98551 22.3376 5.88034 22.523 5.69494C22.7084 5.50953 22.8136 5.25872 22.8158 4.99652C22.8181 4.73432 22.7173 4.48172 22.5352 4.29312L21.8282 3.58612L22.5352 2.87912C22.7173 2.69051 22.8181 2.43791 22.8158 2.17572C22.8136 1.91352 22.7084 1.66271 22.523 1.4773C22.3376 1.29189 22.0868 1.18672 21.8246 1.18444C21.5624 1.18216 21.3098 1.28296 21.1212 1.46512L20.4142 2.17212L19.7072 1.46512C19.5186 1.28296 19.266 1.18216 19.0038 1.18444C18.7416 1.18672 18.4908 1.29189 18.3053 1.4773C18.1199 1.66271 18.0148 1.91352 18.0125 2.17572C18.0102 2.43791 18.111 2.69051 18.2932 2.87912L19.0002 3.58612L18.2932 4.29312C18.1057 4.48065 18.0004 4.73495 18.0004 5.00012C18.0004 5.26528 18.1057 5.51959 18.2932 5.70712V5.70712ZM15.0002 16.0001C15.0002 16.2653 15.1055 16.5197 15.2931 16.7072C15.4806 16.8948 15.7349 17.0001 16.0002 17.0001C16.2654 17.0001 16.5197 16.8948 16.7073 16.7072C16.8948 16.5197 17.0002 16.2653 17.0002 16.0001C17.055 14.4206 17.5946 12.8962 18.5456 11.6339C19.4966 10.3716 20.813 9.4325 22.3162 8.94412C22.4409 8.90262 22.5563 8.83696 22.6557 8.75087C22.755 8.66479 22.8365 8.55998 22.8954 8.44242C22.9542 8.32486 22.9894 8.19686 22.9988 8.06572C23.0082 7.93458 22.9917 7.80287 22.9502 7.67812C22.9087 7.55336 22.843 7.438 22.7569 7.33862C22.6708 7.23924 22.566 7.15779 22.4485 7.09892C22.3309 7.04005 22.2029 7.00491 22.0718 6.9955C21.9406 6.9861 21.8089 7.00262 21.6842 7.04412C19.7825 7.66542 18.1194 8.85953 16.9228 10.4628C15.7263 12.0662 15.0547 14.0003 15.0002 16.0001V16.0001ZM15.4002 2.20012C13.6972 3.63733 12.5286 5.60674 12.0832 7.79012C12.0527 7.91956 12.0483 8.05379 12.0703 8.18495C12.0923 8.31611 12.1402 8.44156 12.2113 8.55397C12.2824 8.66637 12.3752 8.76347 12.4842 8.83958C12.5933 8.91569 12.7164 8.96928 12.8465 8.99721C12.9765 9.02514 13.1108 9.02686 13.2415 9.00226C13.3722 8.97766 13.4966 8.92724 13.6076 8.85395C13.7186 8.78065 13.8138 8.68596 13.8878 8.57541C13.9617 8.46486 14.0128 8.34067 14.0382 8.21012C14.3906 6.5009 15.2899 4.95288 16.6002 3.80012C16.8123 3.64099 16.9526 3.40409 16.9901 3.14154C17.0276 2.87899 16.9593 2.61229 16.8002 2.40012C16.641 2.18794 16.4041 2.04767 16.1416 2.01017C15.879 1.97266 15.6123 2.04099 15.4002 2.20012V2.20012ZM18.1482 16.5171C17.7928 16.8269 17.5069 17.2082 17.3091 17.6361C17.1113 18.0639 17.006 18.5288 17.0002 19.0001C17.0017 19.2622 17.1061 19.5132 17.2909 19.6992C17.4757 19.8851 17.7261 19.991 17.9882 19.9941H18.0002C18.2625 19.9942 18.5143 19.8911 18.7013 19.7073C18.8884 19.5234 18.9957 19.2734 19.0002 19.0111C19.0116 18.6603 19.1543 18.3266 19.4002 18.0761C19.611 17.9682 19.8413 17.9037 20.0775 17.8865C20.3137 17.8693 20.551 17.8998 20.7752 17.9761C20.9032 18.0055 21.0358 18.0094 21.1653 17.9876C21.2949 17.9658 21.4189 17.9187 21.5302 17.8489C21.6415 17.7792 21.7381 17.6882 21.8142 17.5812C21.8904 17.4741 21.9447 17.3532 21.9742 17.2251C22.0036 17.0971 22.0075 16.9645 21.9857 16.835C21.9638 16.7054 21.9167 16.5814 21.847 16.4701C21.7772 16.3587 21.6863 16.2622 21.5792 16.1861C21.4722 16.1099 21.3512 16.0555 21.2232 16.0261C20.7077 15.8638 20.1614 15.8236 19.6277 15.9088C19.094 15.9941 18.5875 16.2023 18.1482 16.5171V16.5171ZM8.00016 1.00012C7.73495 1.00012 7.48059 1.10547 7.29306 1.29301C7.10552 1.48055 7.00016 1.7349 7.00016 2.00012C7.00016 2.26533 7.10552 2.51969 7.29306 2.70722C7.48059 2.89476 7.73495 3.00012 8.00016 3.00012C8.18055 2.97955 8.36324 2.99675 8.53661 3.05064C8.70998 3.10453 8.87023 3.19392 9.00716 3.31312C9.19519 3.74945 9.21056 4.24089 9.05017 4.68812C8.96689 4.94007 8.98711 5.21479 9.10638 5.45184C9.22566 5.68888 9.43421 5.86884 9.68616 5.95212C9.93812 6.0354 10.2128 6.01517 10.4499 5.8959C10.6869 5.77663 10.8669 5.56807 10.9502 5.31612C11.1297 4.79641 11.1944 4.24393 11.1397 3.69681C11.0849 3.14968 10.9121 2.62095 10.6332 2.14712C10.3237 1.75273 9.92106 1.44143 9.46146 1.24122C9.00187 1.04101 8.49972 0.958158 8.00016 1.00012V1.00012Z" />
			</svg>
		</symbol>
		<!-- /////////////////////////////////////////// -->
		<symbol id="search-icon" viewBox="0 0 16 16">
			<title>
				search icon
			</title>
			<svg width="16" height="16" viewBox="0 0 16 16" xmlns="http://www.w3.org/2000/svg">
				<path d="M2.71884 11.2498C3.75739 12.2898 5.14042 12.9142 6.60737 13.0052C8.07432 13.0963 9.52392 12.6477 10.6831 11.7441L14.6716 15.7326C14.813 15.8692 15.0025 15.9448 15.1991 15.9431C15.3958 15.9414 15.5839 15.8625 15.723 15.7234C15.862 15.5844 15.9409 15.3963 15.9426 15.1996C15.9443 15.003 15.8687 14.8135 15.7321 14.6721L11.7436 10.6836C12.6873 9.47245 13.1335 7.94694 12.9911 6.41815C12.8488 4.88937 12.1286 3.47247 10.9775 2.45643C9.82633 1.44038 8.33097 0.901713 6.79634 0.950287C5.26171 0.998861 3.80341 1.63102 2.71884 2.71783C2.15844 3.27795 1.71389 3.94299 1.41059 4.67496C1.10728 5.40694 0.951172 6.1915 0.951172 6.98383C0.951172 7.77615 1.10728 8.56072 1.41059 9.29269C1.71389 10.0247 2.15844 10.6897 2.71884 11.2498ZM3.77934 3.77983C4.52077 3.03841 5.49633 2.57701 6.53981 2.47423C7.58329 2.37144 8.63013 2.63364 9.50197 3.21615C10.3738 3.79865 11.0167 4.66543 11.3211 5.66879C11.6255 6.67215 11.5727 7.75003 11.1715 8.71877C10.7703 9.68751 10.0456 10.4872 9.12094 10.9815C8.19626 11.4759 7.12879 11.6344 6.10038 11.4299C5.07198 11.2255 4.14628 10.6708 3.48099 9.86033C2.81571 9.0499 2.452 8.03386 2.45184 6.98533C2.44979 6.38951 2.56607 5.79921 2.79395 5.24869C3.02184 4.69817 3.35678 4.19838 3.77934 3.77833V3.77983Z" />
			</svg>
		</symbol>
		<!-- /////////////////////////////////////////// -->
		<symbol id="search-icon-bg" viewBox="0 0 24 24">
			<svg width="44" height="44" fill="none" xmlns="http://www.w3.org/2000/svg">
				<rect width="44" height="44" rx="22" fill="#BA8D5B" />
				<path d="M15.718 24.25a6.022 6.022 0 0 0 7.964.494l3.989 3.989a.75.75 0 0 0 1.06-1.06l-3.988-3.99a6.03 6.03 0 1 0-10.333-6.008 6.032 6.032 0 0 0 1.308 6.575Zm1.06-7.47a4.532 4.532 0 1 1-1.327 3.205 4.499 4.499 0 0 1 1.327-3.206v.001Z" fill="#fff" />
			</svg>
		</symbol>
		<!-- /////////////////////////////////////////// -->
		<!-- /////////////////////////////////////////// -->
		<symbol id="bell-icon" viewBox="0 0 16 20">
			<title>
				bell icon
			</title>
			<svg width="16" height="20" viewBox="0 0 16 20" xmlns="http://www.w3.org/2000/svg">
				<path d="M6 18H10C10 18.5304 9.78929 19.0391 9.41421 19.4142C9.03914 19.7893 8.53043 20 8 20C7.46957 20 6.96086 19.7893 6.58579 19.4142C6.21071 19.0391 6 18.5304 6 18ZM14 14V8C13.9986 6.58312 13.4958 5.21247 12.5806 4.13077C11.6655 3.04908 10.3971 2.32615 9 2.09V1C9 0.734784 8.89464 0.48043 8.70711 0.292893C8.51957 0.105357 8.26522 0 8 0C7.73478 0 7.48043 0.105357 7.29289 0.292893C7.10536 0.48043 7 0.734784 7 1V2.09C5.60294 2.32615 4.33452 3.04908 3.41939 4.13077C2.50425 5.21247 2.00144 6.58312 2 8V14L0 16H16L14 14Z" />
			</svg>
		</symbol>
		<!-- /////////////////////////////////////////// -->
		<symbol id="bin-icon" viewBox="0 0 12 12">
			<title>
				bin icon
			</title>
			<svg width="12" height="12" viewBox="0 0 12 12" xmlns="http://www.w3.org/2000/svg">
				<path d="M2.35741 10.8316L1.33366 3.6665H10.667L9.64324 10.8316C9.60351 11.1096 9.46482 11.3639 9.25266 11.5479C9.04049 11.7319 8.76907 11.8332 8.48824 11.8332H3.51241C3.23158 11.8332 2.96016 11.7319 2.748 11.5479C2.53583 11.3639 2.39715 11.1096 2.35741 10.8316ZM11.2503 1.33317H8.33366V0.749837C8.33366 0.595128 8.2722 0.446754 8.16281 0.337358C8.05341 0.227962 7.90504 0.166504 7.75033 0.166504H4.25033C4.09562 0.166504 3.94724 0.227962 3.83785 0.337358C3.72845 0.446754 3.66699 0.595128 3.66699 0.749837V1.33317H0.750326C0.595616 1.33317 0.447243 1.39463 0.337847 1.50403C0.22845 1.61342 0.166992 1.76179 0.166992 1.9165C0.166992 2.07121 0.22845 2.21959 0.337847 2.32898C0.447243 2.43838 0.595616 2.49984 0.750326 2.49984H11.2503C11.405 2.49984 11.5534 2.43838 11.6628 2.32898C11.7722 2.21959 11.8337 2.07121 11.8337 1.9165C11.8337 1.76179 11.7722 1.61342 11.6628 1.50403C11.5534 1.39463 11.405 1.33317 11.2503 1.33317Z" />
			</svg>
		</symbol>
		<!-- /////////////////////////////////////////// -->
		<symbol id="calendar-icon" viewBox="0 0 20 20">
			<title>
				calendar icon
			</title>
			<svg width="20" height="20" viewBox="0 0 20 20" xmlns="http://www.w3.org/2000/svg">
				<path d="M1 20H19C19.2652 20 19.5196 19.8946 19.7071 19.7071C19.8946 19.5196 20 19.2652 20 19V4C20 3.73478 19.8946 3.48043 19.7071 3.29289C19.5196 3.10536 19.2652 3 19 3H15V1C15 0.734784 14.8946 0.48043 14.7071 0.292893C14.5196 0.105357 14.2652 0 14 0C13.7348 0 13.4804 0.105357 13.2929 0.292893C13.1054 0.48043 13 0.734784 13 1V3H7V1C7 0.734784 6.89464 0.48043 6.70711 0.292893C6.51957 0.105357 6.26522 0 6 0C5.73478 0 5.48043 0.105357 5.29289 0.292893C5.10536 0.48043 5 0.734784 5 1V3H1C0.734784 3 0.48043 3.10536 0.292893 3.29289C0.105357 3.48043 0 3.73478 0 4V19C0 19.2652 0.105357 19.5196 0.292893 19.7071C0.48043 19.8946 0.734784 20 1 20ZM2 5H18V8H2V5ZM2 10H18V18H2V10Z" />
			</svg>
		</symbol>
		<!-- /////////////////////////////////////////// -->
		<symbol id="chevron_down-icon" viewBox="0 0 16 10">
			<title>
				chevron-down icon
			</title>
			<svg width="16" height="10" viewBox="0 0 16 10" xmlns="http://www.w3.org/2000/svg">
				<path d="M0.241064 0.745899C0.533264 0.44784 0.990508 0.420743 1.31272 0.66461L1.40503 0.745899L8 7.47342L14.595 0.745899C14.8872 0.44784 15.3444 0.420743 15.6666 0.66461L15.7589 0.745899C16.0511 1.04396 16.0777 1.51037 15.8386 1.83904L15.7589 1.93321L8.58198 9.2541C8.28978 9.55216 7.83254 9.57926 7.51033 9.33539L7.41802 9.2541L0.241064 1.93321C-0.0803548 1.60534 -0.0803548 1.07376 0.241064 0.745899Z" />
			</svg>
		</symbol>
		<!-- /////////////////////////////////////////// -->
		<symbol id="chevron_up-icon" viewBox="0 0 14 8">
			<title>
				chevron-up icon
			</title>
			<svg width="14" height="8" viewBox="0 0 14 8" xmlns="http://www.w3.org/2000/svg">
				<path fill-rule="evenodd" clip-rule="evenodd" d="M13.7071 7.70711C14.0976 7.31658 14.0976 6.68342 13.7071 6.29289L7.70711 0.292893C7.31658 -0.0976317 6.68342 -0.0976318 6.29289 0.292893L0.292893 6.29289C-0.0976314 6.68342 -0.0976314 7.31658 0.292893 7.70711C0.683417 8.09763 1.31658 8.09763 1.70711 7.70711L7 2.41421L12.2929 7.70711C12.6834 8.09763 13.3166 8.09763 13.7071 7.70711Z" />
			</svg>
		</symbol>
		<!-- /////////////////////////////////////////// -->
		<symbol id="download-icon" viewBox="0 0 18 20">
			<title>
				download-icon
			</title>
			<svg width="18" height="20" viewBox="0 0 18 20" xmlns="http://www.w3.org/2000/svg">
				<path d="M1 18H17C17.2652 18 17.5196 18.1054 17.7071 18.2929C17.8946 18.4804 18 18.7348 18 19C18 19.2652 17.8946 19.5196 17.7071 19.7071C17.5196 19.8946 17.2652 20 17 20H1C0.734784 20 0.48043 19.8946 0.292893 19.7071C0.105357 19.5196 0 19.2652 0 19C0 18.7348 0.105357 18.4804 0.292893 18.2929C0.48043 18.1054 0.734784 18 1 18ZM9 0C8.73478 0 8.48043 0.105357 8.29289 0.292893C8.10536 0.48043 8 0.734784 8 1V12.586L5.707 10.293C5.61475 10.1975 5.50441 10.1213 5.3824 10.0689C5.2604 10.0165 5.12918 9.9889 4.9964 9.98775C4.86362 9.9866 4.73194 10.0119 4.60905 10.0622C4.48615 10.1125 4.3745 10.1867 4.2806 10.2806C4.18671 10.3745 4.11246 10.4861 4.06218 10.609C4.0119 10.7319 3.9866 10.8636 3.98775 10.9964C3.9889 11.1292 4.01649 11.2604 4.0689 11.3824C4.12131 11.5044 4.19749 11.6148 4.293 11.707L8.293 15.707C8.3861 15.7996 8.49653 15.873 8.618 15.923C8.73894 15.9738 8.86881 16 9 16C9.13119 16 9.26106 15.9738 9.382 15.923C9.50347 15.873 9.6139 15.7996 9.707 15.707L13.707 11.707C13.8892 11.5184 13.99 11.2658 13.9877 11.0036C13.9854 10.7414 13.8802 10.4906 13.6948 10.3052C13.5094 10.1198 13.2586 10.0146 12.9964 10.0123C12.7342 10.01 12.4816 10.1108 12.293 10.293L10 12.586V1C10 0.734784 9.89464 0.48043 9.70711 0.292893C9.51957 0.105357 9.26522 0 9 0Z" />
			</svg>
		</symbol>
		<!-- /////////////////////////////////////////// -->
		<symbol id="dropdown-icon" viewBox="0 0 7 6">
			<title>
				dropdown icon
			</title>
			<svg width="7" height="6" viewBox="0 0 7 6" xmlns="http://www.w3.org/2000/svg">
				<path d="M4.06521 5.23674L6.91021 1.30806C7.14125 0.988853 6.91704 0.5 6.34558 0.5L0.656946 0.5C0.144271 0.5 -0.1647 0.954253 0.0923204 1.30806L2.93595 5.23674C3.18887 5.5872 3.81229 5.58831 4.06521 5.23674Z" />
			</svg>
		</symbol>
		<!-- /////////////////////////////////////////// -->
		<symbol id="edit-icon" viewBox="0 0 12 12">
			<title>
				edit icon
			</title>
			<svg width="12" height="12" viewBox="0 0 12 12" xmlns="http://www.w3.org/2000/svg">
				<path d="M0.166992 11.25V1.33334C0.166992 1.17863 0.22845 1.03026 0.337847 0.920859C0.447243 0.811463 0.595616 0.750004 0.750326 0.750004H6.00033C6.15504 0.750004 6.30341 0.811463 6.4128 0.920859C6.5222 1.03026 6.58366 1.17863 6.58366 1.33334C6.58366 1.48805 6.5222 1.63642 6.4128 1.74582C6.30341 1.85521 6.15504 1.91667 6.00033 1.91667H1.33366V10.6667H10.0837V6C10.0837 5.84529 10.1451 5.69692 10.2545 5.58753C10.3639 5.47813 10.5123 5.41667 10.667 5.41667C10.8217 5.41667 10.9701 5.47813 11.0795 5.58753C11.1889 5.69692 11.2503 5.84529 11.2503 6V11.25C11.2503 11.4047 11.1889 11.5531 11.0795 11.6625C10.9701 11.7719 10.8217 11.8333 10.667 11.8333H0.750326C0.595616 11.8333 0.447243 11.7719 0.337847 11.6625C0.22845 11.5531 0.166992 11.4047 0.166992 11.25ZM10.9324 0.337588C10.8782 0.283352 10.8139 0.240326 10.7431 0.21097C10.6723 0.181614 10.5964 0.166504 10.5197 0.166504C10.443 0.166504 10.3671 0.181614 10.2963 0.21097C10.2255 0.240326 10.1612 0.283352 10.107 0.337588L6.24183 4.20275V5.7585H7.79758L11.6627 1.89334C11.717 1.83916 11.76 1.77483 11.7894 1.70401C11.8187 1.6332 11.8338 1.55729 11.8338 1.48063C11.8338 1.40397 11.8187 1.32806 11.7894 1.25725C11.76 1.18643 11.717 1.1221 11.6627 1.06792L10.9324 0.337588Z" />
			</svg>
		</symbol>
		<!-- /////////////////////////////////////////// -->
		<symbol id="file-icon" viewBox="0 0 18 20">
			<title>
				file icon
			</title>
			<svg width="18" height="20" viewBox="0 0 18 20" xmlns="http://www.w3.org/2000/svg">
				<path d="M14 16H18L14 20V16ZM18 1V14H12V20H1C0.734784 20 0.48043 19.8946 0.292893 19.7071C0.105357 19.5196 0 19.2652 0 19V1C0 0.734784 0.105357 0.48043 0.292893 0.292893C0.48043 0.105357 0.734784 0 1 0H17C17.2652 0 17.5196 0.105357 17.7071 0.292893C17.8946 0.48043 18 0.734784 18 1ZM10 12C10 11.7348 9.89464 11.4804 9.70711 11.2929C9.51957 11.1054 9.26522 11 9 11H5C4.73478 11 4.48043 11.1054 4.29289 11.2929C4.10536 11.4804 4 11.7348 4 12C4 12.2652 4.10536 12.5196 4.29289 12.7071C4.48043 12.8946 4.73478 13 5 13H9C9.26522 13 9.51957 12.8946 9.70711 12.7071C9.89464 12.5196 10 12.2652 10 12ZM14 7C14 6.73478 13.8946 6.48043 13.7071 6.29289C13.5196 6.10536 13.2652 6 13 6H5C4.73478 6 4.48043 6.10536 4.29289 6.29289C4.10536 6.48043 4 6.73478 4 7C4 7.26522 4.10536 7.51957 4.29289 7.70711C4.48043 7.89464 4.73478 8 5 8H13C13.2652 8 13.5196 7.89464 13.7071 7.70711C13.8946 7.51957 14 7.26522 14 7Z" />
			</svg>
		</symbol>
		<!-- /////////////////////////////////////////// -->
		<symbol id="info-icon" viewBox="0 0 14 14">
			<title>
				info icon
			</title>
			<svg width="14" height="14" fill="none" viewBox="0 0 14 14" xmlns="http://www.w3.org/2000/svg">
				<path d="M7 13C10.3137 13 13 10.3137 13 7C13 3.68629 10.3137 1 7 1C3.68629 1 1 3.68629 1 7C1 10.3137 3.68629 13 7 13Z" stroke="black" stroke-linecap="round" stroke-linejoin="round" />
				<path d="M7 9.4V7" stroke="black" stroke-linecap="round" stroke-linejoin="round" />
				<path d="M7 4.6001H7.006" stroke="black" stroke-linecap="round" stroke-linejoin="round" />
			</svg>
		</symbol>
		<!-- /////////////////////////////////////////// -->
		<symbol id="like-icon" viewBox="0 0 18 16">
			<title>
				like icon
			</title>
			<svg width="18" height="16" viewBox="0 0 18 16" xmlns="http://www.w3.org/2000/svg">
				<path d="M1.5 15.5H13.983C14.5143 15.5034 15.03 15.3209 15.4409 14.9841C15.8518 14.6473 16.132 14.1774 16.233 13.6558L17.2118 8.40575C17.2716 8.08447 17.2598 7.75396 17.1772 7.43777C17.0946 7.12157 16.9433 6.8275 16.734 6.5765C16.5176 6.31688 16.2465 6.10819 15.9402 5.96533C15.6338 5.82247 15.2998 5.74895 14.9618 5.75H11.3835V2.75C11.3835 1.20425 9.79875 0.5 8.3265 0.5C8.12759 0.5 7.93682 0.579018 7.79617 0.71967C7.65552 0.860322 7.5765 1.05109 7.5765 1.25C7.5765 2.68025 7.3215 4.1825 7.0335 4.463L4.94475 6.5H1.5C1.30109 6.5 1.11032 6.57902 0.96967 6.71967C0.829018 6.86032 0.75 7.05109 0.75 7.25V14.75C0.75 14.9489 0.829018 15.1397 0.96967 15.2803C1.11032 15.421 1.30109 15.5 1.5 15.5ZM6 7.56575L8.0805 5.54075C8.778 4.8605 8.9895 3.20675 9.0555 2.10275C9.462 2.1995 9.88725 2.38775 9.88725 2.75375V6.50375C9.88725 6.70266 9.96627 6.89343 10.1069 7.03408C10.2476 7.17473 10.4383 7.25375 10.6372 7.25375H14.9655C15.0831 7.25292 15.1995 7.27802 15.3063 7.32728C15.4131 7.37654 15.5078 7.44875 15.5835 7.53875C15.6529 7.62064 15.7031 7.71705 15.7303 7.82088C15.7576 7.92471 15.7612 8.03333 15.741 8.13875L14.766 13.3888C14.7274 13.566 14.6279 13.7242 14.4849 13.8358C14.3419 13.9475 14.1643 14.0056 13.983 14H6V7.56575ZM2.25 8H4.5V14H2.25V8Z" />
			</svg>
		</symbol>
		<!-- /////////////////////////////////////////// -->
		<symbol id="paper_clip-icon" viewBox="0 0 21 21">
			<title>
				paper clip icon
			</title>
			<svg width="21" height="21" viewBox="0 0 21 21" xmlns="http://www.w3.org/2000/svg">
				<path d="M2.66576 18.63C2.00573 18.0093 1.4771 17.2624 1.11124 16.4335C0.745381 15.6046 0.549745 14.7107 0.535942 13.8048C0.522138 12.8989 0.690448 11.9994 1.03088 11.1598C1.37132 10.3201 1.87695 9.55745 2.51776 8.91696L9.31776 2.11696C9.7659 1.6594 10.3003 1.29524 10.8901 1.04553C11.4799 0.795824 12.1133 0.665526 12.7538 0.662176C13.3942 0.658825 14.029 0.782488 14.6213 1.02601C15.2137 1.26953 15.7519 1.62809 16.2048 2.08093C16.6577 2.53377 17.0163 3.07191 17.2599 3.66423C17.5035 4.25655 17.6273 4.8913 17.624 5.53175C17.6208 6.1722 17.4906 6.80565 17.241 7.39547C16.9913 7.98528 16.6272 8.51975 16.1698 8.96796L9.36976 15.768C8.81316 16.2993 8.07325 16.5958 7.30376 16.5958C6.53426 16.5958 5.79435 16.2993 5.23776 15.768C4.6908 15.2193 4.38366 14.4762 4.38366 13.7015C4.38366 12.9267 4.6908 12.1836 5.23776 11.635L10.6728 6.19996C10.8614 6.0178 11.114 5.91701 11.3762 5.91928C11.6384 5.92156 11.8892 6.02673 12.0746 6.21214C12.26 6.39755 12.3652 6.64836 12.3674 6.91056C12.3697 7.17275 12.2689 7.42536 12.0868 7.61396L6.64976 13.049C6.47877 13.2221 6.38288 13.4556 6.38288 13.699C6.38288 13.9423 6.47877 14.1758 6.64976 14.349C6.8253 14.5153 7.05793 14.608 7.29976 14.608C7.54159 14.608 7.77422 14.5153 7.94976 14.349L14.7498 7.54896C15.2703 7.01282 15.559 6.2934 15.5535 5.54615C15.548 4.79889 15.2487 4.08381 14.7203 3.55541C14.1919 3.02701 13.4768 2.72772 12.7296 2.7222C11.9823 2.71669 11.2629 3.00541 10.7268 3.52596L3.92676 10.326C3.47501 10.7769 3.11845 11.314 2.87824 11.9054C2.63803 12.4968 2.51905 13.1304 2.52838 13.7686C2.53771 14.4069 2.67514 15.0367 2.93254 15.6208C3.18993 16.2049 3.56203 16.7314 4.02676 17.169C4.97847 18.0082 6.21713 18.4482 7.485 18.3973C8.75287 18.3465 9.95231 17.8087 10.8338 16.896L18.8178 8.91196C18.91 8.81645 19.0203 8.74027 19.1424 8.68786C19.2644 8.63545 19.3956 8.60786 19.5284 8.60671C19.6611 8.60555 19.7928 8.63086 19.9157 8.68114C20.0386 8.73142 20.1503 8.80567 20.2442 8.89956C20.338 8.99346 20.4123 9.10511 20.4626 9.228C20.5129 9.3509 20.5382 9.48258 20.537 9.61536C20.5359 9.74814 20.5083 9.87936 20.4559 10.0014C20.4035 10.1234 20.3273 10.2337 20.2318 10.326L12.2478 18.31C10.9155 19.6444 9.10839 20.396 7.22276 20.4C5.53332 20.4143 3.90258 19.7809 2.66576 18.63Z" />
			</svg>
		</symbol>
		<!-- /////////////////////////////////////////// -->
		<symbol id="play-icon" viewBox="0 0 12 16">
			<title>
				play icon
			</title>
			<svg width="12" height="16" viewBox="0 0 12 16" xmlns="http://www.w3.org/2000/svg">
				<path d="M1.29583 0.640125C1.17033 0.556392 1.02446 0.508301 0.873764 0.500982C0.723073 0.493662 0.573221 0.527388 0.440196 0.598563C0.307171 0.669738 0.195964 0.775691 0.118438 0.905117C0.0409125 1.03454 -2.25698e-05 1.18259 9.33564e-09 1.33346V14.6668C-2.25698e-05 14.8177 0.0409125 14.9657 0.118438 15.0951C0.195964 15.2246 0.307171 15.3305 0.440196 15.4017C0.573221 15.4729 0.723073 15.5066 0.873764 15.4993C1.02446 15.492 1.17033 15.4439 1.29583 15.3601L11.2958 8.69346C11.41 8.61736 11.5035 8.51426 11.5683 8.39331C11.633 8.27236 11.6669 8.1373 11.6669 8.00013C11.6669 7.86295 11.633 7.72789 11.5683 7.60694C11.5035 7.486 11.41 7.38289 11.2958 7.30679L1.29583 0.640125ZM1.66667 13.1093V2.89096L9.33333 8.00013L1.66667 13.1093Z" />
			</svg>
		</symbol>
		<!-- /////////////////////////////////////////// -->
		<symbol id="play_next-icon" viewBox="0 0 16 16">
			<title>
				play-next icon
			</title>
			<svg width="16" height="16" viewBox="0 0 16 16" xmlns="http://www.w3.org/2000/svg">
				<path d="M1.35699 15.4018C1.49005 15.473 1.63994 15.5067 1.79067 15.4994C1.9414 15.492 2.08731 15.4439 2.21283 15.3601L12.2128 8.69346C12.327 8.61736 12.4205 8.51425 12.4853 8.39331C12.55 8.27236 12.5838 8.1373 12.5838 8.00012C12.5838 7.86295 12.55 7.72789 12.4853 7.60694C12.4205 7.48599 12.327 7.38289 12.2128 7.30679L2.21283 0.640125C2.08733 0.556392 1.94145 0.508301 1.79076 0.500982C1.64006 0.493662 1.49021 0.527388 1.35719 0.598563C1.22416 0.669738 1.11296 0.775691 1.03543 0.905117C0.957905 1.03454 0.91697 1.18259 0.916992 1.33346V14.6668C0.916932 14.8177 0.957828 14.9657 1.03532 15.0952C1.11281 15.2246 1.22399 15.3306 1.35699 15.4018ZM2.58366 2.89096L10.2503 8.00012L2.58366 13.1093V2.89096ZM13.417 13.0001V3.00012C13.417 2.77911 13.5048 2.56715 13.6611 2.41087C13.8174 2.25459 14.0293 2.16679 14.2503 2.16679C14.4713 2.16679 14.6833 2.25459 14.8396 2.41087C14.9959 2.56715 15.0837 2.77911 15.0837 3.00012V13.0001C15.0837 13.2211 14.9959 13.4331 14.8396 13.5894C14.6833 13.7457 14.4713 13.8335 14.2503 13.8335C14.0293 13.8335 13.8174 13.7457 13.6611 13.5894C13.5048 13.4331 13.417 13.2211 13.417 13.0001Z" />
			</svg>
		</symbol>
		<!-- /////////////////////////////////////////// -->
		<symbol id="play_previous-icon" viewBox="0 0 16 16">
			<title>
				play-previous icon
			</title>
			<svg width="16" height="16" viewBox="0 0 16 16" xmlns="http://www.w3.org/2000/svg">
				<path d="M14.643 0.598208C14.51 0.527011 14.3601 0.493282 14.2093 0.50062C14.0586 0.507958 13.9127 0.556088 13.7872 0.639874L3.78717 7.30654C3.67304 7.38264 3.57946 7.48574 3.51474 7.60669C3.45002 7.72764 3.41615 7.8627 3.41615 7.99987C3.41615 8.13705 3.45002 8.27211 3.51474 8.39306C3.57946 8.514 3.67304 8.6171 3.78717 8.69321L13.7872 15.3599C13.9127 15.4436 14.0586 15.4917 14.2092 15.499C14.3599 15.5063 14.5098 15.4726 14.6428 15.4014C14.7758 15.3303 14.887 15.2243 14.9646 15.0949C15.0421 14.9655 15.083 14.8174 15.083 14.6665L15.083 1.33321C15.0831 1.18234 15.0422 1.03429 14.9647 0.904843C14.8872 0.775398 14.776 0.669417 14.643 0.598208ZM13.4163 13.109L5.74967 7.99987L13.4163 2.89071L13.4163 13.109ZM2.58301 2.99987L2.58301 12.9999C2.58301 13.2209 2.49521 13.4328 2.33893 13.5891C2.18265 13.7454 1.97069 13.8332 1.74967 13.8332C1.52866 13.8332 1.3167 13.7454 1.16042 13.5891C1.00414 13.4328 0.91634 13.2209 0.91634 12.9999L0.916341 2.99987C0.916341 2.77886 1.00414 2.5669 1.16042 2.41062C1.3167 2.25434 1.52866 2.16654 1.74967 2.16654C1.97069 2.16654 2.18265 2.25434 2.33893 2.41062C2.49521 2.5669 2.58301 2.77886 2.58301 2.99987Z" />
			</svg>
		</symbol>
		<!-- /////////////////////////////////////////// -->
		<symbol id="close-icon" viewBox="0 0 10 10">
			<title>
				close icon
			</title>
			<svg width="10" height="10" viewBox="0 0 10 10" xmlns="http://www.w3.org/2000/svg">
				<path d="M8.92265 2.25598L6.17848 5.00015L8.92265 7.74432C9.00224 7.82119 9.06573 7.91314 9.1094 8.01481C9.15308 8.11648 9.17606 8.22583 9.17703 8.33648C9.17799 8.44713 9.1569 8.55686 9.115 8.65928C9.0731 8.76169 9.01122 8.85473 8.93298 8.93298C8.85473 9.01122 8.76169 9.0731 8.65928 9.115C8.55686 9.1569 8.44713 9.17799 8.33648 9.17703C8.22583 9.17606 8.11648 9.15308 8.01481 9.1094C7.91314 9.06573 7.82119 9.00224 7.74432 8.92265L5.00015 6.17848L2.25598 8.92265C2.17911 9.00224 2.08716 9.06573 1.98549 9.1094C1.88382 9.15308 1.77447 9.17606 1.66382 9.17703C1.55317 9.17799 1.44343 9.1569 1.34102 9.115C1.23861 9.0731 1.14556 9.01122 1.06732 8.93298C0.989076 8.85473 0.927198 8.76169 0.885297 8.65928C0.843397 8.55686 0.822312 8.44713 0.823274 8.33648C0.824235 8.22583 0.847224 8.11648 0.890898 8.01481C0.934572 7.91314 0.998057 7.82119 1.07765 7.74432L3.82182 5.00015L1.07765 2.25598C0.998057 2.17911 0.934572 2.08716 0.890898 1.98549C0.847224 1.88382 0.824235 1.77447 0.823274 1.66382C0.822312 1.55317 0.843397 1.44343 0.885297 1.34102C0.927198 1.23861 0.989076 1.14556 1.06732 1.06732C1.14556 0.989076 1.23861 0.927198 1.34102 0.885297C1.44343 0.843397 1.55317 0.822312 1.66382 0.823274C1.77447 0.824235 1.88382 0.847224 1.98549 0.890898C2.08716 0.934572 2.17911 0.998057 2.25598 1.07765L5.00015 3.82182L7.74432 1.07765C7.82119 0.998057 7.91314 0.934572 8.01481 0.890898C8.11648 0.847224 8.22583 0.824235 8.33648 0.823274C8.44713 0.822312 8.55686 0.843397 8.65928 0.885297C8.76169 0.927198 8.85473 0.989076 8.93298 1.06732C9.01122 1.14556 9.0731 1.23861 9.115 1.34102C9.1569 1.44343 9.17799 1.55317 9.17703 1.66382C9.17606 1.77447 9.15308 1.88382 9.1094 1.98549C9.06573 2.08716 9.00224 2.17911 8.92265 2.25598Z" />
			</svg>
		</symbol>
		<symbol id="pen-icon" viewBox="0 0 16 16">
			<title>
				pen icon
			</title>
			<svg width="16" height="16" viewBox="0 0 16 16" xmlns="http://www.w3.org/2000/svg">
				<path d="M14.71 1.29023C14.9604 1.54051 15.1591 1.83768 15.2946 2.16476C15.4302 2.49184 15.4999 2.84243 15.4999 3.19648C15.4999 3.55054 15.4302 3.90112 15.2946 4.2282C15.1591 4.55529 14.9604 4.85246 14.71 5.10273L13.3925 6.4169L9.58333 2.60773L10.9008 1.29023C11.4062 0.785475 12.0912 0.501953 12.8054 0.501953C13.5197 0.501953 14.2047 0.785475 14.71 1.29023ZM5.03167 14.7819L12.2142 7.59856L8.40167 3.78606L1.21833 10.9686L0.5 15.5002L5.03167 14.7819Z" />
			</svg>
		</symbol>
		<symbol id="refresh-icon" viewBox="0 0 18 18">
			<title>
				refresh icon
			</title>
			<svg width="18" height="18" viewBox="0 0 18 18" xmlns="http://www.w3.org/2000/svg">
				<path d="M2.33367 8.99997C2.33367 9.22098 2.24587 9.43294 2.08959 9.58922C1.93331 9.7455 1.72135 9.8333 1.50034 9.8333C1.27932 9.8333 1.06736 9.7455 0.911082 9.58922C0.754801 9.43294 0.667004 9.22098 0.667004 8.99997C0.664363 7.42967 1.10621 5.89069 1.94147 4.56095C2.77672 3.23122 3.97127 2.16503 5.38701 1.48567C6.80274 0.806301 8.38185 0.541499 9.94176 0.721875C11.5017 0.902251 12.9787 1.52044 14.202 2.50497V1.2983C14.202 1.07729 14.2898 0.865324 14.4461 0.709044C14.6024 0.552763 14.8143 0.464966 15.0353 0.464966C15.2564 0.464966 15.4683 0.552763 15.6246 0.709044C15.7809 0.865324 15.8687 1.07729 15.8687 1.2983V4.63163C15.8687 4.85265 15.7809 5.06461 15.6246 5.22089C15.4683 5.37717 15.2564 5.46497 15.0353 5.46497H11.702C11.481 5.46497 11.269 5.37717 11.1127 5.22089C10.9565 5.06461 10.8687 4.85265 10.8687 4.63163C10.8687 4.41062 10.9565 4.19866 11.1127 4.04238C11.269 3.8861 11.481 3.7983 11.702 3.7983H13.1545C12.1754 3.01239 10.994 2.51947 9.74662 2.37648C8.49928 2.23348 7.23694 2.44625 6.10538 2.99019C4.97383 3.53414 4.01922 4.38709 3.35182 5.45051C2.68442 6.51394 2.33145 7.74446 2.33367 8.99997ZM16.5003 8.16663C16.2793 8.16663 16.0674 8.25443 15.9111 8.41071C15.7548 8.56699 15.667 8.77895 15.667 8.99997C15.6692 10.2555 15.3163 11.486 14.6489 12.5494C13.9815 13.6128 13.0268 14.4658 11.8953 15.0097C10.7637 15.5537 9.50139 15.7665 8.25406 15.6235C7.00672 15.4805 5.82527 14.9875 4.84617 14.2016H6.29784C6.51885 14.2016 6.73081 14.1138 6.88709 13.9576C7.04337 13.8013 7.13117 13.5893 7.13117 13.3683C7.13117 13.1473 7.04337 12.9353 6.88709 12.779C6.73081 12.6228 6.51885 12.535 6.29784 12.535H2.9645C2.74349 12.535 2.53153 12.6228 2.37525 12.779C2.21897 12.9353 2.13117 13.1473 2.13117 13.3683V16.7016C2.13117 16.9226 2.21897 17.1346 2.37525 17.2909C2.53153 17.4472 2.74349 17.535 2.9645 17.535C3.18552 17.535 3.39748 17.4472 3.55376 17.2909C3.71004 17.1346 3.79784 16.9226 3.79784 16.7016V15.495C5.02126 16.4794 6.4983 17.0975 8.05822 17.2778C9.61814 17.4582 11.1973 17.1934 12.613 16.514C14.0288 15.8347 15.2234 14.7686 16.0587 13.4389C16.8941 12.1092 17.3361 10.5703 17.3337 8.99997C17.3337 8.77895 17.2459 8.56699 17.0896 8.41071C16.9333 8.25443 16.7213 8.16663 16.5003 8.16663Z" />
			</svg>
		</symbol>
		<symbol id="arrow_left-icon" viewBox="0 0 14 14">
			<title>
				refresh icon
			</title>
			<svg width="14" height="14" viewBox="0 0 14 14" fill="none" xmlns="http://www.w3.org/2000/svg">
				<path d="M13 7H1" stroke-width="2" stroke-linecap="round" stroke-linejoin="round" />
				<path d="M7 1L1 7L7 13" stroke-width="2" stroke-linecap="round" stroke-linejoin="round" />
			</svg>
		</symbol>
		<symbol id="arrow_right-icon" viewBox="0 0 14 14">
			<title>
				arrow-right icon
			</title>
			<svg width="14" height="14" viewBox="0 0 14 14" fill="none" xmlns="http://www.w3.org/2000/svg">
				<path d="M1 7H13" stroke-width="2" stroke-linecap="round" stroke-linejoin="round" />
				<path d="M7 1L13 7L7 13" stroke-width="2" stroke-linecap="round" stroke-linejoin="round" />
			</svg>
		</symbol>
		<symbol id="plus-icon" viewBox="0 0 12 12">
			<title>
				plus icon
			</title>
			<svg width="12" height="12" viewBox="0 0 12 12" xmlns="http://www.w3.org/2000/svg">
				<path d="M5 11V7H1C0.734784 7 0.48043 6.89464 0.292893 6.70711C0.105357 6.51957 0 6.26522 0 6C0 5.73478 0.105357 5.48043 0.292893 5.29289C0.48043 5.10536 0.734784 5 1 5H5V1C5 0.734784 5.10536 0.48043 5.29289 0.292893C5.48043 0.105357 5.73478 0 6 0C6.26522 0 6.51957 0.105357 6.70711 0.292893C6.89464 0.48043 7 0.734784 7 1V5H11C11.2652 5 11.5196 5.10536 11.7071 5.29289C11.8946 5.48043 12 5.73478 12 6C12 6.26522 11.8946 6.51957 11.7071 6.70711C11.5196 6.89464 11.2652 7 11 7H7V11C7 11.2652 6.89464 11.5196 6.70711 11.7071C6.51957 11.8946 6.26522 12 6 12C5.73478 12 5.48043 11.8946 5.29289 11.7071C5.10536 11.5196 5 11.2652 5 11Z" />
			</svg>
		</symbol>
		<symbol id="delete-icon" viewBox="0 0 12 12">
			<title>
				delete icon
			</title>
			<svg width="14" height="14" viewBox="0 0 14 14" xmlns="http://www.w3.org/2000/svg">
				<path d="M3.35716 11.8317L2.33341 4.66663H11.6667L10.643 11.8317C10.6033 12.1097 10.4646 12.3641 10.2524 12.548C10.0402 12.732 9.76883 12.8333 9.488 12.8333H4.51217C4.23133 12.8333 3.95992 12.732 3.74775 12.548C3.53559 12.3641 3.3969 12.1097 3.35716 11.8317ZM12.2501 2.33329H9.33342V1.74996C9.33342 1.59525 9.27196 1.44688 9.16256 1.33748C9.05316 1.22808 8.90479 1.16663 8.75008 1.16663H5.25008C5.09537 1.16663 4.947 1.22808 4.8376 1.33748C4.72821 1.44688 4.66675 1.59525 4.66675 1.74996V2.33329H1.75008C1.59537 2.33329 1.447 2.39475 1.3376 2.50415C1.22821 2.61354 1.16675 2.76192 1.16675 2.91663C1.16675 3.07134 1.22821 3.21971 1.3376 3.3291C1.447 3.4385 1.59537 3.49996 1.75008 3.49996H12.2501C12.4048 3.49996 12.5532 3.4385 12.6626 3.3291C12.772 3.21971 12.8334 3.07134 12.8334 2.91663C12.8334 2.76192 12.772 2.61354 12.6626 2.50415C12.5532 2.39475 12.4048 2.33329 12.2501 2.33329Z" />
			</svg>
		</symbol>
		<symbol id="play-fill-icon" viewBox="0 0 11 11">
			<title>
				play icon
			</title>
			<svg width="11" height="11" viewBox="0 0 11 11" xmlns="http://www.w3.org/2000/svg">
				<path fill-rule="evenodd" clip-rule="evenodd" d="M10.5721 5.02264L1.88219 1.02264C1.71998 0.954069 1.65046 0.885498 1.46507 0.885498C1.21017 0.885498 0.885742 1.0455 0.885742 1.34264V9.57121C0.885742 9.86836 1.21017 10.0284 1.46507 10.0284C1.65046 10.0284 1.71998 9.95978 1.88219 9.89121L10.5721 5.89121C10.7575 5.79978 10.9429 5.70836 10.9429 5.45693C10.9429 5.2055 10.7575 5.11407 10.5721 5.02264Z" />
			</svg>
		</symbol>
		<symbol fill="none" xmlns="http://www.w3.org/2000/svg" viewBox="0 0 14 14" id="icon-info">
			<path d="M7 13A6 6 0 1 0 7 1a6 6 0 0 0 0 12ZM7 9.4V7M7 4.6h.006" stroke-linecap="round" stroke-linejoin="round">
			</path>
		</symbol>
		<symbol id="eye-icon" viewBox="0 0 24 24">
			<title>
				eye icon
			</title>
			<svg enable-background="new 0 0 24 24" height="24px" id="Layer_1" version="1.1" viewBox="0 0 24 24" width="24px" xml:space="preserve" xmlns="http://www.w3.org/2000/svg" xmlns:xlink="http://www.w3.org/1999/xlink">
				<g>
					<g>
						<path clip-rule="evenodd" d="M12,4C4.063,4-0.012,12-0.012,12S3.063,20,12,20    c8.093,0,12.011-7.969,12.011-7.969S20.062,4,12,4z M12.018,17c-2.902,0-5-2.188-5-5c0-2.813,2.098-5,5-5c2.902,0,5,2.187,5,5    C17.018,14.812,14.92,17,12.018,17z M12.018,9c-1.658,0.003-3,1.393-3,3c0,1.606,1.342,3,3,3c1.658,0,3-1.395,3-3    C15.018,10.392,13.676,8.997,12.018,9z" fill-rule="evenodd" />
					</g>
				</g>
			</svg>
		</symbol>
		<symbol fill="none" xmlns="http://www.w3.org/2000/svg" viewBox="0 0 28 28" id="statistics">
			<path d="M7.58331 14H2.91665C2.76194 14 2.61356 14.0615 2.50417 14.1709C2.39477 14.2803 2.33331 14.4286 2.33331 14.5833V23.3333H8.16665V14.5833C8.16665 14.4286 8.10519 14.2803 7.99579 14.1709C7.88639 14.0615 7.73802 14 7.58331 14Z" fill="#BFBFBF">
			</path>
			<path d="M16.3333 4.66666H11.6666C11.5119 4.66666 11.3636 4.72811 11.2542 4.83751C11.1448 4.94691 11.0833 5.09528 11.0833 5.24999V23.3333H16.9166V5.24999C16.9166 5.09528 16.8552 4.94691 16.7458 4.83751C16.6364 4.72811 16.488 4.66666 16.3333 4.66666Z" fill="#BFBFBF">
			</path>
			<path d="M25.0833 9.33334H20.4166C20.2619 9.33334 20.1136 9.3948 20.0042 9.5042C19.8948 9.61359 19.8333 9.76197 19.8333 9.91668V23.3333H25.6666V9.91668C25.6666 9.76197 25.6052 9.61359 25.4958 9.5042C25.3864 9.3948 25.238 9.33334 25.0833 9.33334Z" fill="#BFBFBF">
			</path>
		</symbol>
		<symbol fill="none" xmlns="http://www.w3.org/2000/svg" viewBox="0 0 28 28" id="invoice">
			<path d="M17.5 9.33334C17.5 9.64276 17.3771 9.9395 17.1583 10.1583C16.9395 10.3771 16.6428 10.5 16.3334 10.5H7.00002C6.6906 10.5 6.39386 10.3771 6.17506 10.1583C5.95627 9.9395 5.83335 9.64276 5.83335 9.33334C5.83335 9.02392 5.95627 8.72717 6.17506 8.50838C6.39386 8.28959 6.6906 8.16667 7.00002 8.16667H16.3334C16.6428 8.16667 16.9395 8.28959 17.1583 8.50838C17.3771 8.72717 17.5 9.02392 17.5 9.33334ZM16.3334 12.8333H7.00002C6.6906 12.8333 6.39386 12.9563 6.17506 13.175C5.95627 13.3938 5.83335 13.6906 5.83335 14C5.83335 14.3094 5.95627 14.6062 6.17506 14.825C6.39386 15.0438 6.6906 15.1667 7.00002 15.1667H16.3334C16.6428 15.1667 16.9395 15.0438 17.1583 14.825C17.3771 14.6062 17.5 14.3094 17.5 14C17.5 13.6906 17.3771 13.3938 17.1583 13.175C16.9395 12.9563 16.6428 12.8333 16.3334 12.8333ZM11.6667 17.5H7.00002C6.6906 17.5 6.39386 17.6229 6.17506 17.8417C5.95627 18.0605 5.83335 18.3573 5.83335 18.6667C5.83335 18.9761 5.95627 19.2728 6.17506 19.4916C6.39386 19.7104 6.6906 19.8333 7.00002 19.8333H11.6667C11.9761 19.8333 12.2729 19.7104 12.4916 19.4916C12.7104 19.2728 12.8334 18.9761 12.8334 18.6667C12.8334 18.3573 12.7104 18.0605 12.4916 17.8417C12.2729 17.6229 11.9761 17.5 11.6667 17.5ZM26.8334 14V23.3333C26.8334 24.2616 26.4646 25.1518 25.8082 25.8082C25.1518 26.4646 24.2616 26.8333 23.3334 26.8333H4.66669C3.73843 26.8333 2.84819 26.4646 2.19181 25.8082C1.53544 25.1518 1.16669 24.2616 1.16669 23.3333V4.66667C1.16669 3.73841 1.53544 2.84818 2.19181 2.1918C2.84819 1.53542 3.73843 1.16667 4.66669 1.16667H18.6667C19.5949 1.16667 20.4852 1.53542 21.1416 2.1918C21.7979 2.84818 22.1667 3.73841 22.1667 4.66667V12.8333H25.6667C25.9761 12.8333 26.2729 12.9563 26.4916 13.175C26.7104 13.3938 26.8334 13.6906 26.8334 14ZM19.8334 4.66667C19.8334 4.35725 19.7104 4.06051 19.4916 3.84171C19.2729 3.62292 18.9761 3.50001 18.6667 3.50001H4.66669C4.35727 3.50001 4.06052 3.62292 3.84173 3.84171C3.62294 4.06051 3.50002 4.35725 3.50002 4.66667V23.3333C3.50002 23.6428 3.62294 23.9395 3.84173 24.1583C4.06052 24.3771 4.35727 24.5 4.66669 24.5H19.8334V4.66667ZM24.5 15.1667H22.1667V24.5H23.3334C23.6428 24.5 23.9395 24.3771 24.1583 24.1583C24.3771 23.9395 24.5 23.6428 24.5 23.3333V15.1667Z" fill="#BFBFBF">
			</path>
		</symbol>
		<symbol fill="none" xmlns="http://www.w3.org/2000/svg" viewBox="0 0 24 24" id="roles">
			<path d="M23.995 24H22C22 20.896 22.119 20.45 20.239 20.014C17.362 19.35 14.645 18.723 13.655 16.556C13.294 15.765 13.054 14.461 13.965 12.742C16.007 8.885 16.519 5.577 15.368 3.666C14.027 1.437 9.955 1.425 8.602 3.7C7.448 5.637 7.967 8.927 10.026 12.725C10.956 14.437 10.723 15.745 10.364 16.54C9.382 18.718 6.689 19.339 3.839 19.996C1.875 20.45 2 20.866 2 24H0.005L0 22.759C0 20.239 0.199 18.784 3.178 18.096C6.543 17.319 9.866 16.623 8.268 13.678C3.535 4.949 6.918 0 12 0C16.983 0 20.451 4.766 15.732 13.678C14.181 16.606 17.382 17.302 20.822 18.096C23.801 18.784 24 20.239 24 22.759L23.995 24ZM10.517 18L11.427 20H12.591L13.511 18H10.517ZM13.512 24L12.808 21H11.193L10.489 24H13.512Z" fill="#BFBFBF">
			</path>
		</symbol>
		<symbol fill="none" xmlns="http://www.w3.org/2000/svg" viewBox="0 0 28 28" id="sections">
			<path d="M3.49992 12.8333H11.6666C11.976 12.8333 12.2728 12.7104 12.4915 12.4916C12.7103 12.2728 12.8333 11.9761 12.8333 11.6667V3.50001C12.8333 3.19059 12.7103 2.89384 12.4915 2.67505C12.2728 2.45626 11.976 2.33334 11.6666 2.33334H3.49992C3.1905 2.33334 2.89375 2.45626 2.67496 2.67505C2.45617 2.89384 2.33325 3.19059 2.33325 3.50001V11.6667C2.33325 11.9761 2.45617 12.2728 2.67496 12.4916C2.89375 12.7104 3.1905 12.8333 3.49992 12.8333ZM4.66659 4.66668H10.4999V10.5H4.66659V4.66668ZM25.6666 3.50001C25.6666 3.19059 25.5437 2.89384 25.3249 2.67505C25.1061 2.45626 24.8093 2.33334 24.4999 2.33334H16.3333C16.0238 2.33334 15.7271 2.45626 15.5083 2.67505C15.2895 2.89384 15.1666 3.19059 15.1666 3.50001V11.6667C15.1666 11.9761 15.2895 12.2728 15.5083 12.4916C15.7271 12.7104 16.0238 12.8333 16.3333 12.8333H24.4999C24.8093 12.8333 25.1061 12.7104 25.3249 12.4916C25.5437 12.2728 25.6666 11.9761 25.6666 11.6667V3.50001ZM23.3333 10.5H17.4999V4.66668H23.3333V10.5ZM2.33325 24.5C2.33325 24.8094 2.45617 25.1062 2.67496 25.325C2.89375 25.5438 3.1905 25.6667 3.49992 25.6667H11.6666C11.976 25.6667 12.2728 25.5438 12.4915 25.325C12.7103 25.1062 12.8333 24.8094 12.8333 24.5V16.3333C12.8333 16.0239 12.7103 15.7272 12.4915 15.5084C12.2728 15.2896 11.976 15.1667 11.6666 15.1667H3.49992C3.1905 15.1667 2.89375 15.2896 2.67496 15.5084C2.45617 15.7272 2.33325 16.0239 2.33325 16.3333V24.5ZM4.66659 17.5H10.4999V23.3333H4.66659V17.5ZM25.6666 24.5V16.3333C25.6666 16.0239 25.5437 15.7272 25.3249 15.5084C25.1061 15.2896 24.8093 15.1667 24.4999 15.1667H16.3333C16.0238 15.1667 15.7271 15.2896 15.5083 15.5084C15.2895 15.7272 15.1666 16.0239 15.1666 16.3333V24.5C15.1666 24.8094 15.2895 25.1062 15.5083 25.325C15.7271 25.5438 16.0238 25.6667 16.3333 25.6667H24.4999C24.8093 25.6667 25.1061 25.5438 25.3249 25.325C25.5437 25.1062 25.6666 24.8094 25.6666 24.5ZM23.3333 23.3333H17.4999V17.5H23.3333V23.3333Z" fill="#BFBFBF">
			</path>
		</symbol>
		<symbol fill="none" xmlns="http://www.w3.org/2000/svg" viewBox="0 0 28 28" id="users">
			<path d="M2.33341 24.5H11.6667C11.9762 24.5 12.2729 24.3771 12.4917 24.1583C12.7105 23.9395 12.8334 23.6427 12.8334 23.3333C12.8334 23.0239 12.7105 22.7272 12.4917 22.5084C12.2729 22.2896 11.9762 22.1667 11.6667 22.1667H3.58291C3.86601 20.224 4.83841 18.4479 6.32254 17.1627C7.80667 15.8776 9.70352 15.1691 11.6667 15.1667C13.0405 15.1786 14.3751 14.7095 15.4393 13.8407C16.5034 12.9719 17.2301 11.7582 17.4934 10.4099C17.7566 9.0616 17.5399 7.66367 16.8807 6.4584C16.2214 5.25313 15.1613 4.31647 13.884 3.81077C12.6067 3.30506 11.1927 3.26218 9.8871 3.68955C8.5815 4.11693 7.46656 4.98762 6.73551 6.15073C6.00446 7.31384 5.70339 8.69606 5.88446 10.0579C6.06553 11.4196 6.71733 12.6752 7.72691 13.6068C5.79049 14.3924 4.13214 15.7373 2.96366 17.4697C1.79517 19.2022 1.16957 21.2436 1.16675 23.3333C1.16675 23.6427 1.28966 23.9395 1.50846 24.1583C1.72725 24.3771 2.024 24.5 2.33341 24.5ZM11.6667 5.83333C12.359 5.83333 13.0357 6.0386 13.6112 6.42319C14.1868 6.80777 14.6354 7.3544 14.9003 7.99394C15.1652 8.63348 15.2345 9.33721 15.0995 10.0161C14.9644 10.6951 14.6311 11.3187 14.1416 11.8082C13.6521 12.2977 13.0285 12.631 12.3496 12.7661C11.6706 12.9011 10.9669 12.8318 10.3274 12.5669C9.68781 12.302 9.14119 11.8534 8.7566 11.2778C8.37202 10.7023 8.16675 10.0256 8.16675 9.33333C8.16675 8.40507 8.5355 7.51484 9.19187 6.85846C9.84825 6.20208 10.7385 5.83333 11.6667 5.83333ZM23.3334 17.5L26.8334 18.011L23.9167 20.4167L24.8279 24.5L21.5834 22.1667L18.3389 24.5L19.2501 20.4167L16.3334 18.011L19.8334 17.5L21.5834 14L23.3334 17.5Z" fill="#BFBFBF">
			</path>
		</symbol>
		<symbol fill="none" xmlns="http://www.w3.org/2000/svg" viewBox="0 0 28 28" id="home">
			<path d="M14.6533 2.53286C14.4604 2.40245 14.2329 2.33276 14 2.33276C13.7671 2.33276 13.5396 2.40245 13.3467 2.53286L4.01333 8.83286C3.85517 8.93976 3.72566 9.08385 3.63616 9.25248C3.54666 9.4211 3.4999 9.60912 3.5 9.80002V24.5C3.5 24.8094 3.62292 25.1062 3.84171 25.325C4.0605 25.5438 4.35725 25.6667 4.66667 25.6667H23.3333C23.6428 25.6667 23.9395 25.5438 24.1583 25.325C24.3771 25.1062 24.5 24.8094 24.5 24.5V9.80002C24.5001 9.60912 24.4533 9.4211 24.3638 9.25248C24.2743 9.08385 24.1448 8.93976 23.9867 8.83286L14.6533 2.53286ZM16.3333 23.3334H11.6667V16.3334H16.3333V23.3334ZM22.1667 23.3334H18.6667V15.1667C18.6667 14.8573 18.5437 14.5605 18.325 14.3417C18.1062 14.1229 17.8094 14 17.5 14H10.5C10.1906 14 9.89383 14.1229 9.67504 14.3417C9.45625 14.5605 9.33333 14.8573 9.33333 15.1667V23.3334H5.83333V10.4207L14 4.90819L22.1667 10.4207V23.3334Z" fill="#BFBFBF">
			</path>
		</symbol>
	</defs>
</svg>
